<?xml version="1.0" encoding="UTF-8" standalone="no"?>
<!-- Generator: Adobe Illustrator 24.1.0, SVG Export Plug-In . SVG Version: 6.00 Build 0)  -->

<svg
   version="1.1"
   id="Layer_1"
   x="0px"
   y="0px"
   viewBox="0 0 60.147913 60.130004"
   xml:space="preserve"
   sodipodi:docname="bigger_logo.svg"
   width="60.147915"
   height="60.130001"
   inkscape:version="1.1 (c4e8f9e, 2021-05-24)"
   xmlns:inkscape="http://www.inkscape.org/namespaces/inkscape"
   xmlns:sodipodi="http://sodipodi.sourceforge.net/DTD/sodipodi-0.dtd"
   xmlns="http://www.w3.org/2000/svg"
   xmlns:svg="http://www.w3.org/2000/svg"><defs
   id="defs15" /><sodipodi:namedview
   id="namedview13"
   pagecolor="#505050"
   bordercolor="#eeeeee"
   borderopacity="1"
   inkscape:pageshadow="0"
   inkscape:pageopacity="0"
   inkscape:pagecheckerboard="0"
   showgrid="false"
   inkscape:zoom="1.2131599"
   inkscape:cx="-138.06919"
   inkscape:cy="147.13642"
   inkscape:window-width="1296"
   inkscape:window-height="1081"
   inkscape:window-x="0"
   inkscape:window-y="25"
   inkscape:window-maximized="0"
   inkscape:current-layer="Layer_1" />
<style
   type="text/css"
   id="style2">
	.st0{fill:#F5FF4F;}
	.st1{fill:#FFFFFF;}
</style>
<g
   id="XMLID_711_"
   transform="translate(-584.54001,-161.06999)">
	<g
   id="XMLID_718_">
		<circle
   id="XMLID_720_"
   class="st0"
   cx="590.26001"
   cy="166.78999"
   r="5.7199998" />
	</g>
	<g
   id="XMLID_716_">
		<circle
   id="XMLID_717_"
   class="st0"
   cx="638.96002"
   cy="215.48"
   r="5.7199998" />
	</g>
	<path
   id="XMLID_715_"
   class="st0"
   d="m 618.46,162.55 c -2.2,-2 -5.67,-1.95 -7.81,0.11 -0.89,0.85 -1.44,1.92 -1.65,3.04 -0.92,4.83 -3.49,9.18 -6.97,12.66 l -0.18,0.18 c -3.47,3.47 -7.83,6.05 -12.66,6.97 -1.12,0.21 -2.19,0.76 -3.04,1.65 -2.06,2.14 -2.12,5.61 -0.11,7.81 2.21,2.43 5.99,2.5 8.29,0.2 0.77,-0.77 1.28,-1.71 1.52,-2.7 1.15,-4.82 3.42,-9.31 6.93,-12.82 l 0.38,-0.38 c 3.51,-3.51 8,-5.77 12.82,-6.93 0.99,-0.24 1.93,-0.74 2.7,-1.52 2.28,-2.29 2.21,-6.06 -0.22,-8.27 z" />
	<path
   id="XMLID_714_"
   class="st1"
   d="m 642.81,162.55 c -2.2,-2 -5.67,-1.95 -7.81,0.11 -0.89,0.85 -1.44,1.92 -1.65,3.04 -0.92,4.83 -3.49,9.18 -6.97,12.66 l -0.28,0.28 c -3.51,3.51 -8,5.77 -12.82,6.93 -0.99,0.24 -1.93,0.74 -2.7,1.52 -0.77,0.77 -1.28,1.71 -1.52,2.7 -1.15,4.82 -3.42,9.31 -6.93,12.82 l -0.28,0.28 c -3.48,3.48 -7.83,6.05 -12.66,6.97 -1.12,0.21 -2.19,0.76 -3.04,1.65 -2.06,2.14 -2.12,5.61 -0.11,7.81 2.21,2.43 5.99,2.5 8.29,0.2 0.77,-0.77 1.28,-1.71 1.52,-2.7 1.15,-4.82 3.42,-9.31 6.93,-12.82 l 0.38,-0.38 c 3.51,-3.51 8,-5.77 12.82,-6.93 0.99,-0.24 1.93,-0.74 2.7,-1.52 0.77,-0.77 1.28,-1.71 1.52,-2.7 1.15,-4.82 3.42,-9.31 6.93,-12.82 l 0.38,-0.38 c 3.51,-3.51 8,-5.77 12.82,-6.93 0.99,-0.24 1.93,-0.74 2.7,-1.52 2.28,-2.29 2.21,-6.06 -0.22,-8.27 z" />
	<path
   id="XMLID_712_"
   class="st0"
   d="m 642.81,186.9 c -2.2,-2 -5.67,-1.95 -7.81,0.11 -0.89,0.85 -1.44,1.92 -1.65,3.04 -0.92,4.83 -3.49,9.18 -6.97,12.66 l -0.18,0.18 c -3.47,3.47 -7.83,6.05 -12.66,6.97 -1.12,0.21 -2.19,0.76 -3.04,1.65 -2.06,2.14 -2.12,5.61 -0.11,7.81 2.21,2.43 5.99,2.5 8.29,0.2 0.77,-0.77 1.28,-1.71 1.52,-2.7 1.15,-4.82 3.42,-9.31 6.93,-12.82 l 0.38,-0.38 c 3.51,-3.51 8,-5.77 12.82,-6.93 0.99,-0.24 1.93,-0.74 2.7,-1.52 2.28,-2.29 2.21,-6.06 -0.22,-8.27 z" />
</g>
</svg>
