<?xml version="1.0" encoding="UTF-8" standalone="no"?>
<!-- Generator: Adobe Illustrator 23.0.1, SVG Export Plug-In . SVG Version: 6.00 Build 0)  -->

<svg
   version="1.1"
   id="Layer_1"
   x="0px"
   y="0px"
   viewBox="0 0 142.43402 149.02474"
   xml:space="preserve"
   sodipodi:docname="molten_sphere.svg"
   width="142.43402"
   height="149.02473"
   inkscape:version="1.1 (c4e8f9e, 2021-05-24)"
   xmlns:inkscape="http://www.inkscape.org/namespaces/inkscape"
   xmlns:sodipodi="http://sodipodi.sourceforge.net/DTD/sodipodi-0.dtd"
   xmlns="http://www.w3.org/2000/svg"
   xmlns:svg="http://www.w3.org/2000/svg"><defs
   id="defs132" /><sodipodi:namedview
   id="namedview130"
   pagecolor="#505050"
   bordercolor="#eeeeee"
   borderopacity="1"
   inkscape:pageshadow="0"
   inkscape:pageopacity="0"
   inkscape:pagecheckerboard="0"
   showgrid="false"
   inkscape:zoom="0.74024961"
   inkscape:cx="206.01159"
   inkscape:cy="399.18967"
   inkscape:window-width="1296"
   inkscape:window-height="1081"
   inkscape:window-x="0"
   inkscape:window-y="25"
   inkscape:window-maximized="0"
   inkscape:current-layer="Layer_1" />
<style
   type="text/css"
   id="style125">
	.st0{fill:#231F20;}
</style>
<g
   id="XMLID_367_"
   transform="translate(-1266.9998,-189.72509)"
   style="fill:#f5ff4f;fill-opacity:1">
	<path
   id="XMLID_368_"
   class="st0"
   d="m 1388.49,211.31 c -12.94,-13.46 -31.8,-21.14 -50.28,-21.57 -18.75,-0.44 -37.18,8.91 -50.43,21.57 -13.33,12.75 -20.83,31.73 -20.78,49.64 0.06,21.81 5.21,64.89 23.43,75.8 16.28,9.74 37.23,-19.24 55.21,-19.68 12.43,-0.3 29.94,6.85 40.91,-3.12 13.45,-12.24 22.67,-34.49 22.88,-53 0.21,-18.29 -8.36,-36.56 -20.94,-49.64 z m 18.88,53.32 c 0.52,-1.39 0.91,-2.74 1.18,-4.01 0,0.11 0,0.23 0,0.34 -0.01,3.65 -0.44,7.55 -1.24,11.57 0.26,-2.68 0.28,-5.32 0.06,-7.9 z m -28.92,52.99 c -1.04,0.35 -2.09,0.62 -3.15,0.8 0.01,-0.04 0.01,-0.09 0.02,-0.14 1.05,-0.15 2.09,-0.37 3.13,-0.66 z m -75.35,17.95 c 2.21,0.16 4.55,-0.31 6.99,-1.25 -3.96,2.06 -7.77,3.35 -11.35,3.32 1.36,-0.45 2.82,-1.15 4.36,-2.07 z m 80.02,-29.95 c 2.97,-1.83 5.91,-4.21 8.68,-6.95 -0.21,2.58 -0.66,5 -1.32,7.12 -2.28,2.14 -4.72,3.97 -7.21,5.36 0.12,-1.63 0.08,-3.51 -0.15,-5.53 z m -86.58,-96.63 c 0.46,-0.64 0.98,-1.27 1.56,-1.9 2.43,-0.52 5.1,-0.7 7.93,-0.52 0.04,0 0.08,0.01 0.12,0.01 -0.03,0.05 -0.07,0.1 -0.1,0.15 -3.36,0.45 -6.55,1.21 -9.51,2.26 z m -12.36,12.92 c 0.13,-1.04 0.23,-1.45 0.67,-2.75 2.63,-2.19 5.55,-4.15 8.68,-5.84 -0.13,0.48 -0.17,0.79 -0.24,1.48 -3.29,2.15 -6.35,4.53 -9.11,7.11 z m -2.47,37.5 c -0.64,4.04 -1,8.83 -0.93,14.6 -2.55,-1.71 -4.77,-3.7 -6.61,-5.8 0.21,-5.26 0.85,-9.1 1.81,-12.98 1.62,1.47 3.54,2.85 5.73,4.18 z m 34.25,-54.99 c 4.12,-1.91 8.38,-3.48 12.67,-4.66 0.21,0.53 0.33,1.11 0.37,1.74 -4.41,0.63 -8.79,1.61 -13.04,2.92 z m 55.4,76.7 c -2.13,-2.37 -4.56,-4.6 -7,-7.45 4.01,-4.49 7.73,-9.21 11.04,-13.77 2.64,2.83 5.12,5.42 7.22,8.29 -3.45,4.55 -7.27,9.03 -11.26,12.93 z m -75.44,-44.73 c 0.32,0.09 0.64,0.19 0.97,0.27 1.46,0.38 3.01,0.67 4.61,0.85 -0.6,4.55 -0.99,9.28 -1.18,14.02 -2.23,-0.45 -4.37,-1.04 -6.38,-1.74 -0.42,-0.14 -0.83,-0.29 -1.23,-0.44 0.81,-4.36 1.89,-8.73 3.21,-12.96 z m 67.67,38.13 c 2.45,2.84 4.89,4.99 7.02,7.31 -4.01,3.83 -8.15,7.02 -12.35,9.41 -2.27,-1.71 -4.72,-3.48 -7.16,-5.72 4.28,-2.92 8.44,-6.54 12.49,-11 z m -18.05,-44.86 c -2.09,2.83 -4.42,5.64 -6.92,8.28 -2.69,-4.08 -5.39,-8.08 -8.05,-11.67 1.81,-1.77 3.49,-3.68 5,-5.64 3.33,2.7 6.66,5.86 9.97,9.03 z m -2.23,45.45 c -2.16,-3.87 -4.31,-8.24 -6.41,-12.89 3.54,-2.73 6.99,-6.06 10.21,-9.62 2.67,3.96 5.33,7.74 7.91,11.2 -3.7,4.17 -7.65,8.11 -11.71,11.31 z m -6.85,-13.87 c -2.08,-4.81 -4.13,-9.84 -6.12,-14.69 2.84,-1.96 5.58,-4.34 8.17,-7.01 2.69,4.12 5.38,8.27 8.04,12.22 -3.19,3.52 -6.59,6.8 -10.09,9.48 z m -15.7,-9.73 c 2.99,-1.05 5.96,-2.54 8.84,-4.45 1.99,4.89 4.02,9.94 6.09,14.73 -3.54,2.45 -7.17,4.24 -10.8,5.37 -1.47,-5.09 -2.85,-10.44 -4.13,-15.65 z m 15.36,11.28 c 2.08,4.79 4.23,9.07 6.38,12.94 -4.13,3.13 -8.35,5.41 -12.5,6.4 -1.79,-3.75 -3.33,-8.85 -4.81,-13.91 3.68,-1.14 7.35,-2.95 10.93,-5.43 z m 1.81,-24.13 c -2.54,2.6 -5.24,4.91 -8.02,6.83 -2,-4.87 -3.96,-9.58 -5.84,-13.89 2.04,-1.38 4.01,-2.97 5.85,-4.71 2.64,3.62 5.32,7.66 8.01,11.77 z m -17.45,11.71 c -1.27,-5.22 -2.45,-10.3 -3.52,-14.99 2.17,-0.86 4.31,-1.97 6.4,-3.32 1.88,4.32 3.83,9.05 5.81,13.92 -2.84,1.89 -5.76,3.35 -8.69,4.39 z m 3.61,17.03 c -3.72,1.07 -7.45,1.46 -11.1,1.34 -0.87,-4.97 -1.58,-10.18 -2.14,-15.3 3.02,-0.15 6.09,-0.68 9.14,-1.67 1.27,5.2 2.64,10.54 4.1,15.63 z m 0.31,1.06 c 1.48,5.09 3.01,10.16 4.79,13.85 -4.25,0.89 -8.45,0.84 -12.6,0.6 -1.46,-3.73 -2.52,-8.17 -3.42,-13.14 3.7,0.13 7.46,-0.24 11.23,-1.31 z m 18.55,8.06 c 2.18,3.85 4.48,6.83 6.88,9.08 -4.33,2.89 -8.86,5.58 -13.21,6.12 -2.27,-2.23 -4.4,-5.14 -6.25,-8.83 4.16,-0.96 8.42,-3.22 12.58,-6.37 z m 7.37,9.53 c 2.45,2.21 4.91,3.94 7.19,5.61 -4.26,2.33 -8.57,3.84 -13.02,4.81 -2.48,-1.15 -5.07,-2.12 -7.4,-4.31 4.36,-0.5 8.9,-3.25 13.23,-6.11 z m 0.3,-0.99 c -2.39,-2.27 -4.68,-5.31 -6.87,-9.16 4.09,-3.22 8.07,-7.18 11.79,-11.4 2.61,3.47 5.15,6.63 7.55,9.44 -4.03,4.46 -8.2,8.17 -12.47,11.12 z m -3.35,-34.1 c -2.67,-3.94 -5.38,-8.06 -8.07,-12.14 2.55,-2.7 4.92,-5.59 7.04,-8.48 3.28,3.18 6.55,6.44 9.73,9.64 -2.62,3.69 -5.54,7.44 -8.7,10.98 z m -36.54,1.36 c -0.54,-5.13 -0.92,-10.19 -1.15,-14.95 2.19,-0.32 4.43,-0.88 6.65,-1.7 1.06,4.7 2.22,9.77 3.48,14.96 -3,0.98 -6.01,1.52 -8.98,1.69 z m -1.91,-14.85 c 0.22,4.75 0.6,9.79 1.13,14.89 -1.45,0.05 -2.91,0.02 -4.34,-0.09 -1.53,-0.12 -3.03,-0.32 -4.48,-0.58 0.18,-4.77 0.57,-9.53 1.17,-14.1 1.11,0.09 2.27,0.13 3.43,0.1 1,-0.03 2.04,-0.1 3.09,-0.22 z m -7.73,15.23 c 1.51,0.29 3.07,0.51 4.65,0.64 1.42,0.12 2.87,0.16 4.32,0.12 0.55,5.1 1.25,10.28 2.12,15.24 -1.79,-0.09 -3.58,-0.3 -5.32,-0.6 -1.89,-0.32 -3.76,-0.75 -5.57,-1.24 -0.28,-4.6 -0.35,-9.4 -0.2,-14.16 z m 5.93,16.4 c 1.75,0.31 3.54,0.52 5.34,0.63 0.89,4.96 1.96,9.37 3.41,13.13 -2.02,-0.13 -4.06,-0.31 -6.05,-0.53 -2.19,-0.23 -4.35,-0.5 -6.45,-0.81 -0.99,-4.55 -1.59,-9.11 -1.91,-13.72 1.83,0.52 3.74,0.97 5.66,1.3 z m 22.55,13.96 c 1.85,3.66 3.99,6.54 6.26,8.75 -4.46,0.5 -8.98,0.71 -13.52,1.23 -2.05,-2.49 -3.89,-5.65 -5.41,-9.36 4.18,0.2 8.41,0.24 12.67,-0.62 z m 26.19,-20.12 c -2.59,-3.45 -5.25,-7.22 -7.93,-11.16 3.19,-3.6 6.15,-7.39 8.79,-11.14 3.17,3.2 6.27,6.35 9.22,9.35 -3.02,4.3 -6.41,8.72 -10.08,12.95 z m -9.6,-34.12 c -3.3,-3.15 -6.64,-6.3 -9.99,-8.97 1.47,-1.98 2.76,-3.94 3.85,-5.86 3.85,1.9 7.71,4.06 11.5,6.38 -1.5,2.74 -3.31,5.59 -5.36,8.45 z m -18.23,-20.29 c 0.54,-0.99 0.97,-1.97 1.29,-2.92 4.25,0.17 8.58,0.67 12.84,1.7 -0.58,1.72 -1.39,3.54 -2.4,5.4 -3.9,-1.87 -7.86,-3.15 -11.73,-4.18 z m 11.24,5.04 c -1.06,1.84 -2.33,3.77 -3.76,5.67 -3.37,-2.65 -6.73,-4.97 -10.02,-6.88 0.79,-0.99 1.48,-2 2.08,-3 3.85,1.03 7.8,2.32 11.7,4.21 z m -4.36,6.44 c -1.47,1.88 -3.11,3.71 -4.86,5.41 -2.68,-3.57 -5.33,-6.77 -7.89,-9.49 0.99,-0.91 1.92,-1.88 2.75,-2.87 3.28,1.93 6.64,4.28 10,6.95 z m -11.2,10.57 c -1.89,-4.27 -3.73,-8.16 -5.47,-11.58 1.15,-0.76 2.25,-1.6 3.28,-2.51 2.55,2.74 5.2,5.96 7.87,9.55 -1.8,1.68 -3.71,3.21 -5.68,4.54 z m -6.9,3.68 c -1.06,-4.69 -2.03,-9.03 -2.87,-12.9 1.23,-0.54 2.45,-1.19 3.64,-1.93 1.73,3.42 3.56,7.32 5.43,11.61 -2.02,1.29 -4.1,2.37 -6.2,3.22 z m -7.18,1.98 c -0.21,-4.77 -0.27,-9.28 -0.17,-13.39 1.26,-0.29 2.53,-0.69 3.79,-1.2 0.83,3.87 1.78,8.21 2.83,12.89 -2.15,0.81 -4.32,1.37 -6.45,1.7 z m -0.91,-13.23 c -0.1,4.1 -0.05,8.59 0.15,13.34 -1.06,0.14 -2.13,0.22 -3.17,0.25 -1.07,0.03 -2.13,0.01 -3.17,-0.06 0.63,-4.59 1.47,-9.01 2.49,-13.12 0.65,-0.01 1.33,-0.06 2.01,-0.14 0.56,-0.07 1.13,-0.16 1.69,-0.27 z m -6.98,13.46 c -1.63,-0.16 -3.21,-0.44 -4.68,-0.81 -0.25,-0.07 -0.51,-0.13 -0.75,-0.2 1.37,-4.27 2.99,-8.44 4.83,-12.38 0.17,0.04 0.35,0.07 0.53,0.1 0.81,0.14 1.67,0.22 2.57,0.23 -1.02,4.1 -1.86,8.5 -2.5,13.06 z m -6.2,-1.25 c -1.58,-0.5 -3.04,-1.12 -4.34,-1.82 1.98,-3.91 4.25,-7.74 6.76,-11.38 0.73,0.36 1.53,0.65 2.4,0.88 -1.83,3.93 -3.45,8.08 -4.82,12.32 z m -8.18,-4.61 c 2.44,-3.54 5.2,-6.97 8.21,-10.22 0.49,0.47 1.06,0.89 1.69,1.26 -2.51,3.63 -4.78,7.45 -6.76,11.35 -1.21,-0.72 -2.26,-1.52 -3.14,-2.39 z m 3.44,3.61 c 1.34,0.75 2.83,1.4 4.45,1.93 -1.32,4.22 -2.4,8.56 -3.21,12.91 -2.24,-0.88 -4.3,-1.88 -6.14,-2.96 1.34,-4.03 2.98,-8.01 4.9,-11.88 z m 3.21,16.54 c 2.02,0.71 4.16,1.32 6.38,1.78 -0.15,4.74 -0.09,9.51 0.19,14.1 -2.71,-0.78 -5.33,-1.71 -7.8,-2.71 -0.55,-0.22 -1.1,-0.45 -1.64,-0.68 0.23,-4.26 0.74,-8.64 1.5,-12.99 0.45,0.17 0.91,0.34 1.37,0.5 z m 42.39,41.5 c 2.35,2.18 4.94,3.27 7.41,4.38 -4.59,0.94 -9.3,1.08 -14.09,2.46 -2.42,-1.31 -4.76,-3.09 -6.88,-5.55 4.55,-0.58 9.08,-0.81 13.56,-1.29 z m 21.7,-0.24 c 1.08,0.79 2.13,1.59 3.14,2.4 1.13,0.91 2.18,1.83 3.15,2.78 -3.99,1.62 -8,2.49 -12.18,3 -1.14,-0.66 -2.35,-1.28 -3.63,-1.89 -1.14,-0.54 -2.3,-1.06 -3.47,-1.6 4.44,-0.94 8.74,-2.41 12.99,-4.69 z m 13.07,-9.69 c 1,1.12 1.96,2.24 2.84,3.38 1,1.29 1.92,2.61 2.74,3.93 -3.83,3.13 -7.73,5.58 -11.66,7.26 -0.96,-0.96 -1.99,-1.89 -3.1,-2.82 -1.01,-0.84 -2.06,-1.66 -3.14,-2.48 4.18,-2.34 8.32,-5.49 12.32,-9.27 z m -7.21,-9.24 c -2.41,-2.83 -4.95,-5.98 -7.57,-9.45 3.69,-4.25 7.11,-8.71 10.16,-13.03 2.96,3.02 5.79,5.93 8.41,8.71 -3.29,4.56 -7,9.27 -11,13.77 z m -7.25,-34.02 c -3.18,-3.18 -6.45,-6.42 -9.75,-9.58 2.09,-2.92 3.92,-5.83 5.44,-8.63 3.76,2.33 7.46,4.82 11.02,7.36 -1.86,3.46 -4.12,7.12 -6.71,10.85 z m -16.11,-25.95 c 1.03,-1.92 1.85,-3.8 2.44,-5.59 4.2,1.06 8.4,2.41 12.49,4.01 -0.81,2.49 -1.96,5.15 -3.43,7.92 -3.77,-2.31 -7.64,-4.46 -11.5,-6.34 z m -50.51,20.69 c -1.92,3.86 -3.57,7.84 -4.91,11.85 -1.73,-1.08 -3.24,-2.23 -4.49,-3.46 1.74,-3.72 3.81,-7.36 6.17,-10.86 0.92,0.89 2,1.72 3.23,2.47 z m 1.78,16.15 c -0.77,4.33 -1.28,8.69 -1.52,12.95 -2.79,-1.23 -5.37,-2.53 -7.66,-3.89 0.67,-4.03 1.66,-8.1 2.94,-12.1 1.88,1.1 3.98,2.13 6.24,3.04 z m 18.2,33.21 c 2.01,0.18 4.07,0.35 6.11,0.46 1.52,3.75 3.35,6.96 5.39,9.51 -2.21,0.27 -4.44,0.59 -6.64,0.96 -2.43,0.4 -4.86,0.85 -7.21,1.28 -1.67,-3.86 -3.08,-8.31 -4.13,-12.91 2.1,0.27 4.28,0.5 6.48,0.7 z m 20.16,16.2 c 4.81,-1.43 9.53,-1.58 14.1,-2.49 1.18,0.53 2.36,1.04 3.51,1.57 1.27,0.59 2.48,1.19 3.63,1.84 -4.3,0.49 -8.87,0.29 -13.71,1.93 -1.3,-0.4 -2.65,-0.82 -4,-1.32 -1.18,-0.44 -2.37,-0.94 -3.53,-1.53 z m 41.68,-17.74 c 3.98,-3.85 7.81,-8.28 11.26,-12.8 0.97,1.35 1.87,2.75 2.7,4.16 0.95,1.62 1.79,3.28 2.52,4.95 -3.4,4.05 -7.11,7.91 -10.92,11.12 -0.8,-1.32 -1.7,-2.63 -2.67,-3.92 -0.9,-1.19 -1.87,-2.36 -2.89,-3.51 z m 11.5,-14.37 c -2.11,-2.91 -4.6,-5.47 -7.23,-8.3 3.28,-4.58 6.14,-8.99 8.49,-13.1 2.78,2.81 5.29,5.69 7.46,8.65 -2.41,4 -5.29,8.14 -8.72,12.75 z m -7.78,-8.88 c -2.62,-2.79 -5.45,-5.7 -8.42,-8.72 3.02,-4.36 5.65,-8.58 7.83,-12.53 3.24,2.68 6.28,5.4 9.04,8.14 -2.34,4.11 -5.18,8.52 -8.45,13.11 z m -9.03,-9.34 c -2.95,-3 -6.05,-6.13 -9.24,-9.32 2.62,-3.78 4.9,-7.48 6.79,-10.98 3.55,2.56 6.99,5.19 10.21,7.84 -2.14,3.92 -4.75,8.12 -7.76,12.46 z m -24.15,-42.64 c -4.26,-1.02 -8.59,-1.51 -12.85,-1.68 0.24,-0.87 0.37,-1.7 0.4,-2.47 2.88,-0.37 5.82,-0.72 8.71,-0.65 1.5,0.04 3.02,0.11 4.52,0.22 -0.03,1.4 -0.3,2.93 -0.78,4.58 z m -26.61,-1 c 0,-0.02 0,-0.03 0.01,-0.05 4.32,-1.34 8.77,-2.34 13.26,-2.98 -0.04,0.72 -0.18,1.5 -0.42,2.32 -0.39,-0.01 -0.77,-0.02 -1.16,-0.02 -3.96,-0.05 -7.89,0.19 -11.69,0.73 z m 12.55,0.18 c -0.32,0.88 -0.75,1.79 -1.27,2.71 -3.93,-0.99 -7.83,-1.61 -11.59,-1.86 0.02,-0.06 0.05,-0.11 0.07,-0.17 3.81,-0.53 7.74,-0.77 11.7,-0.71 0.37,0.01 0.72,0.02 1.09,0.03 z m -1.76,3.53 c -0.57,0.92 -1.24,1.85 -1.98,2.76 -3.32,-1.86 -6.59,-3.33 -9.75,-4.37 0.07,-0.09 0.13,-0.18 0.19,-0.27 3.74,0.25 7.62,0.88 11.54,1.88 z m -2.57,3.46 c -0.79,0.91 -1.66,1.8 -2.59,2.64 -2.58,-2.67 -5.1,-4.9 -7.49,-6.67 0.12,-0.12 0.24,-0.23 0.35,-0.36 3.14,1.05 6.41,2.51 9.73,4.39 z m -3.22,3.2 c -0.98,0.84 -2.01,1.61 -3.07,2.31 -1.74,-3.35 -3.39,-6.23 -4.91,-8.63 0.18,-0.12 0.36,-0.25 0.52,-0.39 2.37,1.78 4.88,4.01 7.46,6.71 z m -7.13,4.54 c -0.83,-3.83 -1.54,-7.22 -2.11,-10.12 0.22,-0.1 0.43,-0.22 0.64,-0.34 1.5,2.4 3.14,5.29 4.87,8.65 -1.1,0.69 -2.24,1.29 -3.4,1.81 z m -4.23,1.45 c 0.12,-4.09 0.4,-7.8 0.83,-11.06 0.21,-0.06 0.43,-0.14 0.64,-0.22 0.56,2.91 1.26,6.3 2.08,10.13 -1.19,0.48 -2.37,0.86 -3.55,1.15 z m 0.11,-10.88 c -0.43,3.27 -0.71,6.97 -0.84,11.04 -0.6,0.13 -1.21,0.23 -1.81,0.3 -0.56,0.07 -1.11,0.11 -1.65,0.14 1.07,-4.12 2.33,-7.96 3.76,-11.39 0.14,-0.02 0.29,-0.04 0.44,-0.07 0.03,-0.01 0.06,-0.01 0.1,-0.02 z m -5.09,11.5 c -0.95,0 -1.87,-0.07 -2.72,-0.21 -0.06,-0.01 -0.13,-0.02 -0.19,-0.03 1.91,-3.97 4.05,-7.74 6.36,-11.15 0,0 0.21,0.02 0.3,0.02 -1.42,3.43 -2.68,7.26 -3.75,11.37 z m -3.7,-0.4 c -0.82,-0.19 -1.58,-0.44 -2.28,-0.76 2.6,-3.69 5.46,-7.21 8.51,-10.43 0.04,0.01 0.08,0.03 0.11,0.04 -2.3,3.42 -4.44,7.18 -6.34,11.15 z m -2.99,-1.12 c -0.61,-0.33 -1.15,-0.72 -1.61,-1.14 3.12,-3.31 6.53,-6.45 10.14,-9.32 0,0 0.01,0.01 0.01,0.01 -3.07,3.24 -5.94,6.76 -8.54,10.45 z m -12.9,25.62 c -1.29,4 -2.29,8.06 -2.97,12.09 -2.17,-1.33 -4.07,-2.72 -5.64,-4.19 1,-3.87 2.36,-7.69 4.04,-11.4 1.29,1.24 2.83,2.41 4.57,3.5 z m 6.19,17.64 c 0.55,0.23 1.11,0.47 1.67,0.7 2.48,1.01 5.13,1.96 7.87,2.76 0.32,4.59 0.9,9.2 1.88,13.82 -3.13,-0.48 -6.17,-1.07 -9.03,-1.85 -0.67,-0.18 -1.34,-0.37 -1.99,-0.58 -0.5,-5.45 -0.59,-10.58 -0.4,-14.85 z m 2.47,16.53 c 2.91,0.73 5.99,1.27 9.16,1.7 1.04,4.67 2.43,9.21 4.09,13.18 -3.49,0.62 -6.89,1.16 -10.11,1.36 -0.78,0.05 -1.55,0.08 -2.31,0.08 -1.27,-5.44 -2.22,-11.28 -2.79,-16.85 0.65,0.19 1.3,0.37 1.96,0.53 z m 21.68,14.09 c 2.23,-0.41 4.49,-0.79 6.74,-1.09 2.11,2.51 4.45,4.36 6.86,5.7 -2.32,0.71 -4.69,1.62 -7.04,2.65 -2.61,1.14 -5.22,2.45 -7.77,3.77 -2.2,-2.46 -4.23,-5.72 -5.98,-9.6 2.35,-0.47 4.77,-0.98 7.19,-1.43 z m 6.94,7.7 c 2.4,-1.1 4.82,-2.05 7.18,-2.8 1.18,0.62 2.39,1.14 3.59,1.59 1.31,0.49 2.62,0.91 3.92,1.3 -2.33,0.86 -4.72,2.03 -7.1,3.43 -2.66,1.55 -5.34,3.39 -7.97,5.33 -1.35,-0.52 -2.69,-1.22 -3.99,-2.12 -1.13,-0.79 -2.24,-1.75 -3.29,-2.85 2.51,-1.37 5.09,-2.71 7.66,-3.88 z m 29.78,-1.87 c 2.09,1.22 3.99,2.61 5.66,4.15 -3.89,0.11 -7.97,0.05 -12.42,0.36 -2.12,-1.31 -4.49,-1.95 -6.88,-2.69 4.82,-1.62 9.36,-1.36 13.64,-1.82 z m 12.84,-2.96 c 1.75,1.76 3.26,3.63 4.52,5.55 -3.61,1.03 -7.23,1.4 -11,1.54 -1.66,-1.55 -3.54,-2.97 -5.61,-4.21 4.13,-0.48 8.12,-1.3 12.09,-2.88 z m 12.3,-7.39 c 1.45,2.44 2.61,4.96 3.47,7.44 -3.5,2.45 -7.04,4.21 -10.6,5.3 -1.25,-1.94 -2.74,-3.85 -4.47,-5.64 3.9,-1.63 7.78,-4.02 11.6,-7.1 z m 6.76,-22.32 c 3.43,-4.57 6.33,-8.73 8.75,-12.7 0.99,1.39 1.92,2.81 2.76,4.23 0.99,1.68 1.88,3.42 2.59,5.3 -2.46,3.96 -5.49,8.23 -8.88,12.34 -0.71,-1.63 -1.52,-3.25 -2.43,-4.81 -0.84,-1.47 -1.78,-2.93 -2.79,-4.36 z m -15.7,-50.41 c -1,3.04 -2.42,6.31 -4.24,9.77 -3.56,-2.54 -7.27,-5.02 -11.04,-7.33 1.48,-2.82 2.65,-5.53 3.47,-8.07 4.06,1.62 8.03,3.49 11.83,5.53 0,0.04 -0.01,0.06 -0.02,0.1 z m -29.3,-16.77 c -2.94,-0.07 -5.94,0.28 -8.88,0.66 -0.04,-0.66 -0.17,-1.28 -0.37,-1.86 4.26,-1.11 8.58,-1.84 12.85,-2.02 0.45,1.02 0.71,2.16 0.76,3.42 -1.45,-0.1 -2.91,-0.17 -4.36,-0.2 z m -43.24,18.43 c -0.39,-0.45 -0.7,-0.93 -0.93,-1.44 3.36,-2.76 7,-5.35 10.85,-7.68 -3.53,2.82 -6.86,5.89 -9.92,9.12 z m -1.62,-0.87 c 0.26,0.54 0.59,1.05 1,1.53 -3.01,3.24 -5.78,6.67 -8.23,10.21 -0.79,-0.88 -1.41,-1.83 -1.84,-2.84 2.72,-3.14 5.77,-6.12 9.07,-8.9 z m -3.33,60.44 c -3.28,-1.08 -6.31,-2.48 -9,-4.18 -0.1,-5.78 0.25,-10.63 0.88,-14.68 2.33,1.36 4.93,2.68 7.75,3.92 -0.2,4.25 -0.13,9.42 0.37,14.94 z m 6.17,19.29 c 3.28,-0.28 6.75,-0.93 10.32,-1.65 1.73,3.97 3.74,7.34 5.93,9.9 -3.74,1.95 -7.41,3.91 -10.88,5.44 -0.86,0.38 -1.71,0.74 -2.54,1.06 -1.96,-4.08 -3.65,-9.13 -4.99,-14.62 0.71,-0.03 1.43,-0.07 2.16,-0.13 z m 33.31,8.24 c 2.44,-1.45 4.89,-2.66 7.29,-3.55 2.38,0.72 4.71,1.44 6.9,2.45 -2.22,0.55 -4.49,1.47 -6.74,2.65 -2.57,1.36 -5.16,3.1 -7.7,5.02 -2.51,-0.15 -5.04,-0.47 -7.49,-1.32 2.55,-1.91 5.16,-3.72 7.74,-5.25 z m 27.91,-1.11 c 1.57,1.49 2.94,3.11 4.13,4.68 -3.41,-0.09 -6.98,-0.32 -10.83,-0.23 -1.71,-1.43 -3.57,-2.86 -5.58,-4.14 4.4,-0.3 8.43,-0.22 12.28,-0.31 z m 11.59,-1.46 c 1.17,1.84 2.11,3.72 2.86,5.48 -3.17,0.64 -6.36,0.74 -9.67,0.67 -1.18,-1.58 -2.54,-3.2 -4.09,-4.71 3.74,-0.11 7.32,-0.45 10.9,-1.44 z m 19.05,-24.99 c 1.25,3.04 2.14,6.18 2.67,9.29 -3.19,3.49 -6.62,6.67 -10.11,9.19 -0.86,-2.51 -2.01,-5.06 -3.45,-7.53 3.79,-3.15 7.49,-6.94 10.89,-10.95 z m 1.08,-45.63 c -1.21,3.47 -2.95,7.22 -5.19,11.25 -2.77,-2.76 -5.82,-5.47 -9.05,-8.15 2.13,-3.98 3.8,-7.69 4.96,-11.13 3.38,2.43 6.54,5.01 9.38,7.73 -0.04,0.13 -0.06,0.19 -0.1,0.3 z m -10.08,-8.33 c -1.13,3.36 -2.75,6.99 -4.83,10.88 -3.23,-2.64 -6.67,-5.27 -10.22,-7.83 1.85,-3.53 3.31,-6.87 4.32,-9.97 v 0 c 3.78,2.07 7.41,4.32 10.8,6.7 -0.02,0.09 -0.04,0.13 -0.07,0.22 z m -23.88,-14.14 c -4.1,-1.59 -8.3,-2.93 -12.51,-3.98 0.49,-1.69 0.76,-3.26 0.8,-4.71 4.32,0.38 8.62,1.09 12.81,2.13 -0.02,1.98 -0.39,4.17 -1.1,6.56 z m -11.7,-9.59 c -0.05,-1.29 -0.28,-2.47 -0.7,-3.52 0.77,-0.02 1.53,-0.03 2.3,-0.03 3.39,0.02 6.79,0.28 10.1,0.79 0.67,1.43 1.04,3.05 1.11,4.85 -4.2,-1.03 -8.51,-1.73 -12.81,-2.09 z m -49.72,15.91 c -0.15,-0.54 -0.22,-1.11 -0.21,-1.7 3.42,-2.21 7.12,-4.19 11.01,-5.9 -3.82,2.3 -7.45,4.86 -10.8,7.6 z m -8.12,13.82 c -2.37,3.49 -4.45,7.12 -6.2,10.84 -1.14,-1.23 -2.04,-2.54 -2.66,-3.94 1.97,-3.41 4.3,-6.68 6.92,-9.77 0.48,1.02 1.13,1.98 1.94,2.87 z m 4.5,49.14 c 0.55,5.62 1.48,11.55 2.73,17.1 -3.7,-0.07 -7.13,-0.75 -10.16,-2.17 -0.93,-6.47 -1.5,-13.07 -1.65,-19.01 2.72,1.69 5.78,3.05 9.08,4.08 z m 3,18.29 c 1.32,5.59 2.98,10.76 4.91,14.97 -4.01,1.45 -7.7,2.11 -10.98,1.68 -1.74,-5.51 -3.14,-11.93 -4.15,-18.5 3.07,1.32 6.51,1.89 10.22,1.85 z m 87.02,0.19 c 0.78,2.38 1.31,4.73 1.61,6.9 -3.07,1.84 -6.17,3.08 -9.29,3.78 -0.74,-1.78 -1.67,-3.67 -2.83,-5.54 3.53,-1.05 7.04,-2.76 10.51,-5.14 z m 17.5,-32.7 c 1.19,3.39 1.96,6.91 2.3,10.45 -2.42,3.68 -5.32,7.5 -8.49,11.06 -0.55,-3.12 -1.45,-6.27 -2.7,-9.32 3.37,-4.05 6.41,-8.26 8.89,-12.19 z m 5.46,-12.18 c -1.2,3.19 -2.88,6.42 -5.19,10.25 -0.69,-1.77 -1.54,-3.36 -2.47,-4.94 -0.89,-1.53 -1.88,-3.04 -2.94,-4.52 2.36,-3.98 4.2,-7.7 5.48,-11.17 0.96,1.43 1.85,2.9 2.65,4.4 0.99,1.83 1.86,3.72 2.6,5.62 -0.04,0.15 -0.07,0.22 -0.13,0.36 z m -5.79,-10.86 c -1.23,3.4 -3.01,7.05 -5.3,10.96 -2.18,-2.97 -4.7,-5.85 -7.48,-8.66 2.31,-4.12 4.1,-7.96 5.35,-11.5 2.84,2.79 5.38,5.75 7.55,8.87 -0.05,0.13 -0.07,0.2 -0.12,0.33 z m -29.47,-26.19 c -3.81,-2.04 -7.78,-3.9 -11.84,-5.51 0.71,-2.41 1.1,-4.64 1.15,-6.66 4.14,1.08 8.19,2.47 12.04,4.13 -0.02,2.42 -0.47,5.1 -1.35,8.04 z m -52.57,-12.82 c 3.69,-2.29 7.51,-4.25 11.37,-5.78 0.42,0.35 0.76,0.74 1.04,1.19 -4.2,1.17 -8.37,2.72 -12.41,4.59 z m -0.74,-0.46 c 3.15,-2.58 6.44,-4.79 9.77,-6.55 0.58,0.18 1.11,0.41 1.57,0.68 -3.86,1.57 -7.67,3.55 -11.34,5.87 z m -0.98,-0.18 c -0.02,0 -0.03,-0.01 -0.05,-0.01 2.43,-2.71 4.99,-5.01 7.63,-6.84 0.72,0.02 1.4,0.09 2.04,0.21 -3.29,1.8 -6.52,4.04 -9.62,6.64 z m -0.94,-0.13 c -0.08,0 -0.16,0 -0.24,0 1.51,-2.57 3.16,-4.73 4.9,-6.44 0.87,-0.14 1.72,-0.24 2.54,-0.28 -2.5,1.85 -4.91,4.1 -7.2,6.72 z m -8.61,5.84 c -3.65,1.62 -7.13,3.47 -10.37,5.53 0.07,-0.51 0.14,-0.77 0.35,-1.42 0.35,-0.18 0.71,-0.36 1.05,-0.53 3.4,-1.67 6.58,-2.83 8.97,-3.58 z m -11.3,7.09 c 0.03,0.6 0.14,1.19 0.33,1.74 -3.3,2.76 -6.35,5.72 -9.08,8.83 -0.33,-1.02 -0.48,-2.1 -0.46,-3.23 2.78,-2.66 5.87,-5.12 9.21,-7.34 z m -13.64,26.6 c -1.69,3.7 -3.06,7.51 -4.08,11.38 -1.45,-1.47 -2.57,-3.02 -3.35,-4.7 1.2,-3.64 2.76,-7.18 4.65,-10.57 0.68,1.38 1.61,2.67 2.78,3.89 z m -5.5,27.17 c 1.88,2.1 4.12,4.07 6.67,5.75 0.14,5.93 0.67,12.55 1.57,19.08 -2.87,-1.51 -5.36,-3.71 -7.42,-6.38 -0.67,-6.62 -0.96,-13 -0.82,-18.45 z m 28.18,43.14 c 3.56,-1.66 7.33,-3.78 11.17,-5.86 1.08,1.2 2.23,2.23 3.39,3.07 1.24,0.9 2.53,1.6 3.83,2.13 -3.81,2.85 -7.56,5.88 -11.11,8.55 -0.9,0.68 -1.79,1.33 -2.66,1.96 -1.36,-1 -2.68,-2.33 -3.91,-3.97 -1.05,-1.4 -2.05,-3.04 -2.98,-4.87 0.74,-0.31 1.5,-0.65 2.27,-1.01 z m 7.49,8.64 v 0 c 3.67,-2.84 7.56,-6.06 11.51,-9.06 2.43,0.89 4.93,1.24 7.43,1.38 -3.64,2.83 -7.22,6.03 -10.62,9.05 -0.89,0.79 -1.77,1.57 -2.63,2.34 -2.77,0.14 -5.43,-0.44 -7.89,-2.04 0.72,-0.53 1.45,-1.09 2.2,-1.67 z m 20.74,-8.45 c 2.42,-1.82 4.88,-3.45 7.32,-4.73 2.35,-1.24 4.77,-2.44 6.98,-2.62 2.01,1.27 3.88,2.68 5.6,4.1 -1.83,0.06 -3.71,-0.03 -5.72,0.52 -2.32,0.64 -4.68,1.69 -6.99,3 -2.36,-0.16 -4.78,-0.16 -7.19,-0.27 z m 21.34,-2.75 c 3.78,-0.08 7.28,0.15 10.62,0.26 1.09,1.48 2.03,2.92 2.83,4.17 -2.87,-0.16 -5.86,-0.45 -9.03,-0.57 -1.34,-1.16 -2.81,-2.5 -4.42,-3.86 z m 14.09,4.46 c -0.79,-1.25 -1.72,-2.69 -2.81,-4.19 3.26,0.08 6.4,0 9.52,-0.61 0.67,1.65 1.16,3.2 1.5,4.51 -2.69,0.42 -5.41,0.43 -8.21,0.29 z m 17.04,-9.74 c -0.31,-2.2 -0.83,-4.57 -1.61,-6.96 3.45,-2.45 6.84,-5.55 10.02,-8.97 0.45,2.97 0.58,5.92 0.44,8.68 -2.81,2.84 -5.8,5.33 -8.85,7.25 z m 23.44,-39.86 c -1.2,3.08 -2.98,6.47 -5.21,10 -0.39,-3.51 -1.19,-6.98 -2.4,-10.32 2.38,-3.87 4.13,-7.19 5.39,-10.42 1.2,3.33 2.04,6.74 2.38,10.35 -0.07,0.15 -0.1,0.23 -0.16,0.39 z m -16.33,-33.2 c -2.85,-2.71 -6.01,-5.29 -9.39,-7.71 1.02,-3.25 1.56,-6.22 1.62,-8.91 3.38,2.23 6.52,4.7 9.34,7.35 0.04,2.78 -0.49,5.87 -1.57,9.27 z M 1380,223.53 c -3.39,-2.38 -7.02,-4.62 -10.8,-6.69 0.89,-2.95 1.37,-5.65 1.43,-8.09 3.83,1.7 7.49,3.66 10.88,5.84 0,2.68 -0.5,5.66 -1.51,8.94 z m -22.28,-20.22 c -0.05,-1.81 -0.38,-3.45 -0.98,-4.91 3.97,0.68 7.86,1.71 11.58,3.06 0.85,1.74 1.33,3.71 1.43,5.92 -3.86,-1.64 -7.9,-3.01 -12.03,-4.07 z m -12.03,-6.7 c -0.91,0 -1.83,0.01 -2.75,0.04 -0.48,-0.92 -1.11,-1.73 -1.89,-2.42 2.21,-0.25 4.43,-0.37 6.61,-0.37 1.54,0 3.09,0.07 4.6,0.2 1.22,0.91 2.21,2 2.95,3.25 -3.11,-0.45 -6.31,-0.69 -9.52,-0.7 z m -3.74,0.08 c -4.25,0.2 -8.54,0.96 -12.77,2.07 -0.26,-0.49 -0.59,-0.92 -0.99,-1.31 3.87,-1.46 7.81,-2.56 11.7,-3.08 0.84,0.65 1.53,1.43 2.06,2.32 z m -25.4,-0.05 c -1.6,1.72 -3.11,3.82 -4.5,6.28 -0.1,0.02 -0.2,0.04 -0.3,0.06 -0.07,0.02 -0.14,0.03 -0.21,0.05 0.53,-2.27 1.19,-4.13 1.97,-5.57 0.86,-0.28 1.74,-0.52 2.6,-0.72 0.14,-0.03 0.29,-0.07 0.44,-0.1 z m -5.78,6.62 c -0.22,0.08 -0.44,0.16 -0.66,0.26 -0.41,-1.84 -0.68,-3.3 -0.82,-4.38 1.07,-0.5 2.14,-0.94 3.22,-1.33 -0.7,1.47 -1.28,3.28 -1.74,5.45 z m -8.69,0.22 c 0.85,-0.65 1.74,-1.27 2.66,-1.86 0.98,0.61 2.13,1.6 3.43,2.97 -0.17,0.12 -0.33,0.24 -0.49,0.37 -2,-0.81 -3.88,-1.3 -5.6,-1.48 z m 2.38,4.31 c -2.44,0.76 -5.7,1.95 -9.2,3.67 -0.08,0.04 -0.17,0.08 -0.25,0.13 0.24,-0.55 0.38,-0.8 0.78,-1.47 2.7,-1.04 5.61,-1.82 8.67,-2.33 z m -27.5,28.93 c -0.49,-1.39 -0.71,-2.87 -0.67,-4.41 2,-2.99 4.34,-5.81 6.97,-8.42 0.05,1.1 0.26,2.15 0.64,3.16 -2.62,3.06 -4.95,6.29 -6.94,9.67 z m -1.64,17.9 c -0.97,3.86 -1.63,7.59 -1.88,12.74 -1.68,-2.05 -2.98,-4.16 -3.87,-6.12 0.41,-3.96 1.17,-7.51 2.29,-11.13 0.85,1.6 2.01,3.1 3.46,4.51 z m 7.28,41.27 c 0.97,6.61 2.33,13.12 4.02,18.74 -3.07,-0.63 -5.73,-2.26 -7.93,-4.72 -1.57,-6.33 -2.75,-13.29 -3.52,-20.03 2.09,2.55 4.59,4.62 7.43,6.01 z m 16.46,18.2 c 0.98,2.01 2.04,3.81 3.15,5.33 1.15,1.58 2.38,2.88 3.64,3.88 -4.1,2.85 -7.89,4.95 -11.25,5.87 -1.36,-1.68 -2.64,-3.78 -3.82,-6.24 -0.96,-2.01 -1.86,-4.27 -2.68,-6.7 3.28,0.24 6.97,-0.57 10.96,-2.14 z m 19.26,9.16 c 3.57,-3.22 7.34,-6.62 11.16,-9.57 2.37,0.1 4.74,0.06 7.07,0.16 -3.21,1.95 -6.38,4.37 -9.4,6.85 -0.82,0.68 -1.64,1.36 -2.44,2.03 -2.83,1.08 -5.62,1.96 -8.29,2.24 0.63,-0.57 1.26,-1.14 1.9,-1.71 z m 26.7,-12.62 c 2.12,-0.56 4.1,-0.44 6.03,-0.5 1.58,1.33 3.04,2.64 4.38,3.81 -1.44,-0.04 -2.93,-0.04 -4.46,0.01 -1.86,0.06 -3.77,0.08 -5.73,0.45 -2.13,-0.62 -4.33,-0.99 -6.57,-1.19 2.1,-1.13 4.24,-2.02 6.35,-2.58 z m 20.73,4.54 c 0.66,1.03 1.23,1.92 1.71,2.6 -2.27,-0.16 -4.61,-0.44 -7.04,-0.7 -1.02,-0.6 -2.14,-1.44 -3.36,-2.46 3.04,0.13 5.91,0.4 8.69,0.56 z m 16.68,-9.13 c 0.23,2.04 0.26,3.91 0.11,5.5 -2.55,1.33 -5.14,2.19 -7.77,2.66 -0.33,-1.33 -0.82,-2.89 -1.48,-4.54 3.07,-0.67 6.12,-1.85 9.14,-3.62 z m 18.17,-28.75 c 0.23,3.38 0.08,6.8 -0.41,10.1 -2.19,3.23 -4.75,6.44 -7.52,9.35 0.11,-2.77 -0.04,-5.71 -0.5,-8.66 3.13,-3.46 6,-7.18 8.43,-10.79 z m 3.63,-25.38 c -0.68,-1.69 -1.47,-3.36 -2.34,-4.99 -0.89,-1.66 -1.88,-3.3 -2.96,-4.88 1.08,-3.16 1.67,-6.09 1.77,-8.78 0.85,1.34 1.65,2.72 2.38,4.12 1,1.93 1.88,3.93 2.59,5.85 0.06,2.66 -0.42,5.56 -1.44,8.68 z m -5.87,-10.69 c -2.19,-3.09 -4.73,-6.04 -7.57,-8.81 1.09,-3.32 1.67,-6.36 1.73,-9.13 2.79,2.72 5.28,5.67 7.4,8.8 0.04,2.76 -0.48,5.81 -1.56,9.14 z m -16,-27.14 c -0.06,-2.31 -0.49,-4.41 -1.29,-6.3 3.15,2.03 6.07,4.32 8.66,6.76 1.1,1.99 1.75,4.24 1.92,6.74 -2.82,-2.6 -5.94,-5.01 -9.29,-7.2 z m -11.74,-6.32 c -0.05,-2.16 -0.45,-4.13 -1.19,-5.88 3.63,1.4 7.11,3.12 10.35,5.1 1,1.93 1.57,4.11 1.7,6.54 -3.4,-2.15 -7.05,-4.09 -10.86,-5.76 z m -14.31,-10.29 c -0.64,-1.23 -1.5,-2.32 -2.55,-3.27 3.54,0.41 7,1.17 10.25,2.22 1.52,1.1 2.76,2.42 3.7,3.93 -3.67,-1.28 -7.5,-2.25 -11.4,-2.88 z m -8.64,-4.4 c -2.47,-0.01 -4.98,0.15 -7.47,0.47 -0.8,-0.57 -1.72,-1.05 -2.74,-1.41 2.57,-0.49 5.14,-0.69 7.68,-0.68 0.55,0 1.1,0.01 1.58,0.03 1.56,0.42 2.97,0.99 4.2,1.7 -1.08,-0.08 -2.17,-0.11 -3.25,-0.11 z m -20.18,3.79 c -0.45,-0.33 -0.96,-0.6 -1.52,-0.83 3.25,-1.61 6.57,-2.8 9.89,-3.57 1.14,0.31 2.17,0.71 3.07,1.25 -3.82,0.56 -7.67,1.7 -11.44,3.15 z m -2.56,-1.17 c -0.64,-0.17 -1.32,-0.3 -2.05,-0.36 2.47,-1.57 5.02,-2.76 7.59,-3.55 1.32,0.02 2.57,0.13 3.73,0.33 -3.12,0.82 -6.23,2.01 -9.27,3.58 z m -3.34,-0.44 c -0.05,0 -0.08,0 -0.13,0 -0.81,0 -1.67,0.05 -2.56,0.16 1.6,-1.38 3.28,-2.41 4.98,-3.08 1.44,-0.25 2.83,-0.41 4.16,-0.5 -2.18,0.86 -4.35,2 -6.45,3.42 z m -12.79,8.93 c -1.23,-1.34 -2.35,-2.34 -3.32,-3.02 1.01,-0.61 2.05,-1.18 3.1,-1.7 0.16,1.1 0.46,2.55 0.87,4.35 -0.21,0.12 -0.43,0.25 -0.65,0.37 z m -7.47,0.04 c 1.72,0.09 3.63,0.53 5.7,1.32 -0.09,0.09 -0.18,0.18 -0.27,0.28 -0.28,-0.02 -0.56,-0.04 -0.84,-0.06 -2.42,-0.14 -4.72,-0.03 -6.86,0.33 0.65,-0.64 1.35,-1.27 2.1,-1.88 0.06,0.01 0.1,0.01 0.17,0.01 z m -13.09,8.86 c 0.78,-1.03 1.66,-2.06 2.6,-3.06 1.76,-1.13 3.74,-2.01 5.91,-2.6 -0.57,0.69 -1.08,1.38 -1.52,2.07 -2.51,0.98 -4.85,2.18 -6.99,3.59 z m 5.63,-0.89 c 0,0.01 0,0.01 -0.01,0.02 -3.03,1.59 -5.85,3.41 -8.4,5.4 0.42,-0.91 0.91,-1.81 1.45,-2.68 2.3,-1.7 4.87,-3.16 7.67,-4.33 -0.28,0.53 -0.52,1.06 -0.71,1.59 z m -10.15,7.93 c -0.25,0.91 -0.4,1.8 -0.45,2.65 -2.56,2.49 -4.85,5.17 -6.85,8 0.17,-1.2 0.49,-2.45 0.94,-3.69 1.83,-2.5 3.96,-4.83 6.36,-6.96 z m -7.26,17.47 c -1.89,3.33 -3.47,6.81 -4.7,10.39 -0.61,-1.67 -0.89,-3.44 -0.84,-5.23 1.21,-3.23 2.76,-6.35 4.62,-9.29 0.08,1.44 0.38,2.82 0.92,4.13 z m -7.02,25.16 c 0.98,1.93 2.3,3.96 3.95,5.93 -0.18,5.3 0.06,11.56 0.69,18.1 -1.85,-2.69 -3.3,-5.76 -4.3,-8.92 -0.52,-5.76 -0.64,-10.94 -0.34,-15.11 z m 17.63,53.35 c 0.89,2.77 1.87,5.33 2.93,7.58 1.04,2.22 2.17,4.16 3.35,5.77 -3.09,0.6 -5.77,0.12 -8,-1.38 -1.36,-2.4 -2.62,-5.25 -3.76,-8.4 -0.84,-2.34 -1.63,-4.88 -2.33,-7.51 2.22,2.14 4.84,3.5 7.81,3.94 z m 19.43,7.68 c 2.41,1.7 5.01,2.4 7.72,2.35 -3.91,3.42 -7.54,6.35 -10.77,8.29 -2.92,-0.27 -5.64,-1.68 -8.07,-4.34 3.35,-1.13 7.1,-3.38 11.12,-6.3 z m 8.65,2.31 c 2.55,-0.19 5.21,-0.97 7.93,-1.99 -3.41,2.91 -6.58,5.66 -9.35,7.76 -3.12,1.56 -6.12,2.56 -8.92,2.61 3.15,-2.12 6.63,-5.06 10.34,-8.38 z m 12.19,-4.92 c 3.26,-2.68 6.68,-5.29 10.15,-7.29 2.12,0.12 4.21,0.38 6.25,0.86 -2.52,0.65 -5.02,1.74 -7.4,3.01 -0.73,0.39 -1.44,0.79 -2.06,1.16 -2.72,1 -5.45,2.18 -8.13,3.25 0.39,-0.33 1.19,-0.99 1.19,-0.99 z m 23.88,-6.59 c 1.7,-0.06 3.36,-0.05 4.95,0 1.08,0.92 2.09,1.73 3.04,2.37 -0.94,-0.09 -1.9,-0.18 -2.86,-0.26 -1.43,-0.11 -2.9,-0.2 -4.3,-0.26 -1.7,-0.36 -3.5,-0.89 -5.39,-1.55 1.56,-0.15 3.08,-0.25 4.56,-0.3 z m 15.15,0.63 c 2.72,0.14 5.36,0.13 7.96,-0.24 0.26,1.14 0.38,2.06 0.38,2.71 -2.15,0.28 -4.35,0.28 -6.61,0.14 -0.47,-0.64 -1.05,-1.53 -1.73,-2.61 z m 8.56,-0.34 c 2.53,-0.43 5.04,-1.22 7.5,-2.45 -0.21,1.39 -0.57,2.53 -1.08,3.37 -1.95,0.89 -3.97,1.48 -6.02,1.8 -0.03,-0.71 -0.16,-1.63 -0.4,-2.72 z m 15.06,-7.67 c -0.69,1.82 -1.54,3.38 -2.5,4.61 -1.61,1.38 -3.33,2.55 -5.11,3.47 0.37,-0.9 0.64,-1.99 0.8,-3.26 2.34,-1.24 4.63,-2.88 6.81,-4.82 z m 9.93,-18.16 c -0.57,3.06 -1.42,6.01 -2.47,8.65 -1.75,2.52 -3.78,4.95 -5.96,7.12 0.57,-2.12 0.96,-4.47 1.12,-6.96 2.66,-2.72 5.14,-5.74 7.31,-8.81 z m 5.93,-11.94 c -1.16,2.83 -2.76,5.83 -4.7,8.85 0.4,-3.22 0.48,-6.53 0.21,-9.8 2.25,-3.46 4.08,-6.81 5.37,-9.88 0.17,3.41 -0.07,6.92 -0.69,10.37 -0.08,0.19 -0.12,0.28 -0.19,0.46 z m 1.34,-14.21 c -0.44,-3.43 -1.33,-6.67 -2.52,-9.86 0.96,-2.72 1.53,-5.28 1.7,-7.68 0.66,2.11 1.19,4.3 1.57,6.52 0.19,1.47 0.34,2.94 0.44,4.34 -0.06,2.12 -0.43,4.3 -1.19,6.68 z m -3.5,-26.01 c -0.89,-1.73 -1.9,-3.44 -2.98,-5.07 -0.04,-1.12 -0.17,-2.21 -0.41,-3.27 2.03,3.7 3.71,7.56 5,11.52 0.03,0.15 0.06,0.3 0.09,0.44 -0.53,-1.22 -1.09,-2.43 -1.7,-3.62 z m -11.17,-14.78 c -0.06,-2.14 -0.45,-4.12 -1.15,-5.92 1.19,1.23 2.4,2.56 3.48,3.95 1.29,1.66 2.46,3.42 3.49,5.07 0.8,1.65 1.3,3.44 1.49,5.34 -2.12,-3 -4.58,-5.83 -7.31,-8.44 z m -13.61,-16.59 c -3.15,-1.83 -6.5,-3.41 -9.99,-4.71 -0.7,-1.33 -1.61,-2.52 -2.72,-3.58 1.89,0.72 3.78,1.57 5.61,2.53 1.36,0.78 2.77,1.67 4.29,2.69 1.11,0.92 2.04,1.95 2.81,3.07 z m -26.29,-12.21 c -0.87,-0.62 -1.84,-1.15 -2.91,-1.6 0.33,0.04 0.65,0.09 0.97,0.13 3.54,0.68 7.04,1.66 10.4,2.9 0.08,0.04 0.16,0.08 0.24,0.11 -2.83,-0.75 -5.74,-1.27 -8.7,-1.54 z m -35.05,2.31 c -0.5,0.09 -1.01,0.19 -1.53,0.31 -0.63,0.15 -1.26,0.31 -1.89,0.5 0.63,-0.9 1.33,-1.58 2.06,-2.03 1.29,-0.45 2.55,-0.86 3.76,-1.2 0.16,-0.04 0.24,-0.06 0.39,-0.1 0.24,-0.07 0.49,-0.13 0.73,-0.19 -1.22,0.73 -2.39,1.63 -3.52,2.71 z m -8.34,1.67 c 1.63,-0.78 3.29,-1.5 4.97,-2.15 -0.42,0.47 -0.8,1.02 -1.16,1.64 -1.27,0.43 -2.56,0.94 -3.84,1.52 -0.03,-0.53 0,-0.83 0.03,-1.01 z m -5.53,2.95 c 1.54,-0.91 3.13,-1.76 4.74,-2.56 -0.01,0.27 0.01,0.59 0.05,0.96 -1.28,0.62 -2.54,1.31 -3.74,2.06 -0.38,-0.2 -0.73,-0.36 -1.05,-0.46 z m -5.27,3.39 c 1.34,-0.94 2.73,-1.86 4.17,-2.74 0.06,0 0.13,-0.01 0.19,0 0.34,0.01 0.72,0.12 1.16,0.31 -1.08,0.7 -2.1,1.44 -3.06,2.21 -0.86,-0.01 -1.68,0.06 -2.46,0.22 z m -5.52,4.37 c 0.36,-0.34 0.74,-0.69 1.13,-1.01 0.73,-0.62 1.51,-1.23 2.25,-1.79 1.07,-0.54 2.29,-0.86 3.61,-0.95 -0.81,0.7 -1.55,1.41 -2.23,2.14 -1.69,0.37 -3.28,0.91 -4.76,1.61 z m -8.68,10.55 c -0.01,0.04 -0.02,0.06 -0.04,0.11 -0.16,0.13 -0.23,0.19 -0.39,0.32 -0.26,0.21 -0.52,0.42 -0.77,0.64 -1.51,1.35 -2.93,2.81 -4.24,4.35 0.03,-0.06 0.06,-0.12 0.09,-0.17 1.01,-1.55 1.95,-2.89 2.85,-4.08 1.09,-1.24 2.28,-2.41 3.56,-3.49 -0.41,0.77 -0.77,1.55 -1.06,2.32 z m -12.97,21.43 c 0.05,-0.33 0.11,-0.62 0.19,-0.92 0.77,-2.27 1.67,-4.51 2.67,-6.67 0.57,-1.12 1.2,-2.21 1.87,-3.26 -0.25,1.02 -0.39,2.01 -0.44,2.96 -1.67,2.5 -3.11,5.15 -4.29,7.89 z m -3.11,14.91 c 0.09,-1.06 0.21,-2.11 0.35,-3.14 0.42,-2.43 1.01,-4.81 1.76,-7.1 0.14,1.57 0.52,3.06 1.13,4.47 -1.12,3.5 -1.92,7.11 -2.38,10.74 -0.55,-1.54 -0.84,-3.21 -0.86,-4.97 z m 6.13,33.86 c 0.7,6.57 1.79,13.4 3.24,19.73 -1.72,-2.35 -3.11,-5.28 -4.14,-8.54 -0.09,-0.37 -0.14,-0.55 -0.23,-0.91 -0.16,-0.65 -0.33,-1.3 -0.47,-1.93 -1.19,-5.44 -2.02,-10.98 -2.58,-16.03 1.08,2.75 2.48,5.38 4.18,7.68 z m 3.83,22.18 c 0.82,3.28 1.75,6.45 2.77,9.32 0.77,2.18 1.61,4.23 2.5,6.09 -0.33,-0.36 -0.64,-0.75 -0.95,-1.17 -2.87,-5.17 -5.35,-11.78 -7.4,-18.97 0.9,1.79 1.93,3.39 3.08,4.73 z m 16.03,19.54 c 2.29,2.76 4.84,4.38 7.59,4.92 -2.53,1.29 -4.79,1.89 -6.74,1.74 -0.67,-0.19 -1.34,-0.44 -1.98,-0.73 -2.32,-1.28 -4.45,-3.38 -6.33,-6.18 2.15,0.91 4.65,1 7.46,0.25 z m 30.35,-6.9 c 2.25,-0.89 4.54,-1.91 6.84,-2.85 -0.96,0.61 -1.92,1.24 -2.86,1.87 -2.95,1.83 -5.82,3.83 -8.49,5.63 -1.16,0.74 -2.29,1.44 -3.38,2.08 2.46,-2.02 5.11,-4.36 7.89,-6.73 z m 43.47,-5.12 c 0.05,0.06 0.1,0.12 0.15,0.18 -1.54,-0.14 -3.17,-0.36 -4.87,-0.62 1.62,0.18 3.19,0.34 4.72,0.44 z m 28.14,-17.78 c -0.24,0.49 -0.49,0.96 -0.75,1.43 -1.84,2.87 -3.76,5.43 -5.69,7.57 0.54,-1.05 1.02,-2.2 1.43,-3.46 1.77,-1.69 3.46,-3.57 5.01,-5.54 z m 9.21,-20.64 c -0.2,0.8 -0.42,1.61 -0.65,2.4 -1.15,3.43 -2.53,6.86 -4.05,10.08 -0.49,0.92 -1,1.82 -1.54,2.71 0.81,-2.42 1.43,-4.99 1.85,-7.61 1.71,-2.55 3.19,-5.11 4.39,-7.58 z m -24.9,-73.61 c -0.32,-0.59 -0.69,-1.16 -1.09,-1.71 2.39,1.78 4.68,3.7 6.83,5.73 -1.82,-1.44 -3.74,-2.78 -5.74,-4.02 z m -44.44,-14.74 c -0.96,-0.24 -1.98,-0.42 -3.07,-0.53 0.96,-0.2 1.94,-0.35 2.93,-0.46 0.18,-0.01 0.26,-0.01 0.44,-0.02 0.65,-0.02 1.29,-0.05 1.94,-0.05 1.35,0 2.77,0.06 4.31,0.17 -2.18,0.13 -4.37,0.41 -6.55,0.89 z m -49.53,22.66 c -0.22,0.16 -0.44,0.33 -0.65,0.5 0.37,-0.41 0.74,-0.81 1.13,-1.21 -0.18,0.24 -0.33,0.48 -0.48,0.71 z m -17.66,59.68 c -0.02,-0.11 -0.04,-0.22 -0.06,-0.32 -0.56,-4.99 -0.85,-9.34 -0.85,-12.72 0,-0.72 0.01,-1.44 0.04,-2.19 0.22,0.92 0.53,1.78 0.91,2.66 -0.33,3.45 -0.34,7.73 -0.04,12.57 z m 76.33,41.09 c 1.29,0.37 2.54,0.84 3.75,1.19 -1.14,-0.05 -2.19,-0.09 -3.22,-0.07 -2.02,0.03 -4.14,0.37 -6.46,1.11 -0.63,0.17 -1.25,0.35 -1.87,0.54 2.53,-1.26 5.15,-2.28 7.8,-2.77 z m 29.51,3.27 c -0.02,0.06 -0.05,0.12 -0.07,0.16 -1.9,0.26 -3.8,0.27 -5.7,0.14 -0.06,-0.05 -0.13,-0.11 -0.21,-0.19 2.04,0.12 4.03,0.12 5.98,-0.11 z"
   style="fill:#f5ff4f;fill-opacity:1" />
</g>
</svg>
