<?xml version="1.0" encoding="UTF-8" standalone="no"?>
<!-- Generator: Adobe Illustrator 24.1.0, SVG Export Plug-In . SVG Version: 6.00 Build 0)  -->

<svg
   version="1.1"
   id="Layer_1"
   x="0px"
   y="0px"
   viewBox="0 0 57.788168 41.710001"
   xml:space="preserve"
   sodipodi:docname="nav_logo.svg"
   width="57.78817"
   height="41.709999"
   inkscape:version="1.1 (c4e8f9e, 2021-05-24)"
   xmlns:inkscape="http://www.inkscape.org/namespaces/inkscape"
   xmlns:sodipodi="http://sodipodi.sourceforge.net/DTD/sodipodi-0.dtd"
   xmlns="http://www.w3.org/2000/svg"
   xmlns:svg="http://www.w3.org/2000/svg"><defs
   id="defs18" /><sodipodi:namedview
   id="namedview16"
   pagecolor="#505050"
   bordercolor="#eeeeee"
   borderopacity="1"
   inkscape:pageshadow="0"
   inkscape:pageopacity="0"
   inkscape:pagecheckerboard="0"
   showgrid="false"
   inkscape:zoom="1.2310829"
   inkscape:cx="40.208503"
   inkscape:cy="97.069013"
   inkscape:window-width="1312"
   inkscape:window-height="1081"
   inkscape:window-x="0"
   inkscape:window-y="25"
   inkscape:window-maximized="0"
   inkscape:current-layer="Layer_1" />
<style
   type="text/css"
   id="style9">
	.st0{fill:#F5FF4F;}
	.st1{fill:#FFFFFF;}
</style>
<g
   id="XMLID_7567_"
   transform="translate(-505.2654,-387.24)">
	<path
   id="XMLID_7576_"
   class="st0"
   d="m 548.98,395.34 c -0.23,3.8 -3.32,6.9 -7.12,7.13 -2.02,0.12 -3.88,-0.54 -5.31,-1.71 -2.54,-2.08 -5.77,-3.11 -9.05,-3.11 h -0.77 c -3.35,0 -6.55,1.21 -9.2,3.26 -1.28,0.99 -2.89,1.58 -4.64,1.58 -4.37,0 -7.88,-3.68 -7.61,-8.11 0.24,-3.8 3.34,-6.89 7.14,-7.12 2.02,-0.12 3.88,0.54 5.3,1.71 2.53,2.08 5.77,3.11 9.04,3.11 h 0.77 c 3.35,0 6.55,-1.21 9.2,-3.26 1.29,-0.99 2.9,-1.58 4.65,-1.58 4.36,0 7.86,3.67 7.6,8.1 z" />
	<path
   id="XMLID_7569_"
   class="st0"
   d="m 548.98,421.8 c -0.23,3.8 -3.32,6.9 -7.12,7.13 -2.02,0.12 -3.88,-0.54 -5.31,-1.71 -2.54,-2.08 -5.77,-3.11 -9.05,-3.11 h -0.77 c -3.35,0 -6.55,1.21 -9.2,3.26 -1.28,0.99 -2.89,1.58 -4.64,1.58 -4.37,0 -7.88,-3.68 -7.61,-8.11 0.24,-3.8 3.34,-6.89 7.14,-7.12 2.02,-0.12 3.88,0.54 5.3,1.71 2.53,2.08 5.77,3.11 9.04,3.11 h 0.77 c 3.35,0 6.55,-1.21 9.2,-3.26 1.29,-0.99 2.9,-1.58 4.65,-1.58 4.36,0.01 7.86,3.68 7.6,8.1 z" />
	<path
   id="XMLID_7568_"
   class="st1"
   d="m 563.04,408.37 c -0.23,3.8 -3.32,6.9 -7.12,7.13 -2.02,0.12 -3.88,-0.54 -5.31,-1.71 -2.54,-2.08 -5.77,-3.11 -9.05,-3.11 h -0.77 c -3.35,0 -6.55,1.21 -9.2,3.26 -1.28,0.99 -2.89,1.58 -4.64,1.58 -4.37,0 -7.88,-3.68 -7.61,-8.11 0.24,-3.8 3.34,-6.89 7.14,-7.12 2.02,-0.12 3.88,0.54 5.3,1.71 2.53,2.08 5.77,3.11 9.04,3.11 h 0.77 c 3.35,0 6.55,-1.21 9.2,-3.26 1.29,-0.99 2.9,-1.58 4.65,-1.58 4.35,0 7.86,3.67 7.6,8.1 z" />
</g>
</svg>
