<?xml version="1.0" encoding="UTF-8" standalone="no"?>
<!-- Generator: Adobe Illustrator 23.0.1, SVG Export Plug-In . SVG Version: 6.00 Build 0)  -->

<svg
   version="1.1"
   id="Layer_1"
   x="0px"
   y="0px"
   viewBox="0 0 101.92166 101.1825"
   xml:space="preserve"
   sodipodi:docname="pp_bg.svg"
   width="101.92166"
   height="101.1825"
   inkscape:version="1.1 (c4e8f9e, 2021-05-24)"
   xmlns:inkscape="http://www.inkscape.org/namespaces/inkscape"
   xmlns:sodipodi="http://sodipodi.sourceforge.net/DTD/sodipodi-0.dtd"
   xmlns="http://www.w3.org/2000/svg"
   xmlns:svg="http://www.w3.org/2000/svg"><defs
   id="defs207" /><sodipodi:namedview
   id="namedview205"
   pagecolor="#505050"
   bordercolor="#eeeeee"
   borderopacity="1"
   inkscape:pageshadow="0"
   inkscape:pageopacity="0"
   inkscape:pagecheckerboard="0"
   showgrid="false"
   inkscape:zoom="0.74024961"
   inkscape:cx="-304.62698"
   inkscape:cy="303.27608"
   inkscape:window-width="1296"
   inkscape:window-height="1081"
   inkscape:window-x="0"
   inkscape:window-y="25"
   inkscape:window-maximized="0"
   inkscape:current-layer="Layer_1" />
<style
   type="text/css"
   id="style134">
	.st0{fill:#231F20;}
</style>
<g
   id="XMLID_1960_"
   transform="translate(-769.40077,-201.5075)"
   style="fill:#f5ff4f;fill-opacity:1">
	<g
   id="XMLID_2096_"
   style="fill:#f5ff4f;fill-opacity:1">
		<g
   id="XMLID_2114_"
   style="fill:#f5ff4f;fill-opacity:1">
			<g
   id="XMLID_2131_"
   style="fill:#f5ff4f;fill-opacity:1">
				<path
   id="XMLID_136_"
   class="st0"
   d="m 838.07,211.37 c -1.08,0 -2.13,-0.12 -3.15,-0.41 -2.76,-0.78 -4.69,-2.55 -6.56,-4.27 -2.29,-2.11 -4.46,-4.09 -8.05,-4.4 -5.07,-0.44 -10.37,-0.29 -15.5,-0.14 -2.54,0.07 -5.16,0.14 -7.7,0.14 h -26.98 v -0.5 h 26.98 c 2.53,0 5.15,-0.07 7.68,-0.14 5.14,-0.14 10.46,-0.29 15.56,0.15 3.76,0.32 6.09,2.46 8.34,4.53 1.83,1.68 3.71,3.41 6.36,4.15 4.38,1.23 9.41,-0.63 13.85,-2.28 0.63,-0.23 1.24,-0.46 1.83,-0.67 1.14,-0.4 2.26,-0.82 3.39,-1.23 5.23,-1.92 10.64,-3.91 16.38,-4.5 l 0.05,0.5 c -5.68,0.58 -11.05,2.56 -16.25,4.48 -1.13,0.42 -2.26,0.83 -3.4,1.24 -0.59,0.21 -1.2,0.43 -1.82,0.67 -3.33,1.22 -7.29,2.68 -11.01,2.68 z"
   style="fill:#f5ff4f;fill-opacity:1" />
			</g>
			<g
   id="XMLID_2130_"
   style="fill:#f5ff4f;fill-opacity:1">
				<path
   id="XMLID_135_"
   class="st0"
   d="m 839.41,216.41 c -1.05,0 -2.1,-0.1 -3.12,-0.33 -2.75,-0.62 -5.04,-2.06 -7.25,-3.46 -2.73,-1.72 -5.31,-3.34 -8.73,-3.63 -1.45,-0.12 -2.91,-0.25 -4.38,-0.37 -6.25,-0.54 -12.71,-1.09 -18.97,-1.21 -4.65,-0.08 -9.36,0.36 -13.9,0.79 -4.16,0.39 -8.47,0.8 -12.74,0.8 -0.06,0 -0.12,0 -0.19,0 v -0.5 c 4.31,0 8.67,-0.4 12.88,-0.8 4.56,-0.43 9.27,-0.88 13.96,-0.79 6.27,0.12 12.74,0.67 19,1.21 1.47,0.13 2.93,0.25 4.38,0.37 3.54,0.29 6.29,2.03 8.95,3.7 2.18,1.37 4.43,2.79 7.09,3.39 4.38,0.99 9.23,-0.53 13.51,-1.86 0.59,-0.18 1.16,-0.36 1.73,-0.53 0.95,-0.29 1.9,-0.58 2.85,-0.88 5.15,-1.59 10.47,-3.24 16.02,-3.82 l 0.05,0.5 c -5.5,0.58 -10.56,2.14 -15.92,3.8 -0.95,0.29 -1.9,0.59 -2.86,0.88 -0.56,0.17 -1.14,0.35 -1.72,0.53 -3.35,1.05 -7.05,2.21 -10.64,2.21 z"
   style="fill:#f5ff4f;fill-opacity:1" />
			</g>
			<g
   id="XMLID_2129_"
   style="fill:#f5ff4f;fill-opacity:1">
				<path
   id="XMLID_134_"
   class="st0"
   d="m 842.43,219.78 c -1.14,0 -2.27,-0.05 -3.41,-0.17 -3.08,-0.32 -6.07,-1.14 -8.96,-1.92 -3.14,-0.85 -6.38,-1.74 -9.75,-1.99 -4.07,-0.31 -8.04,-1.38 -11.88,-2.42 -3.82,-1.03 -7.76,-2.1 -11.78,-2.4 -5.09,-0.38 -10.06,1.03 -14.87,2.39 -3.77,1.07 -7.67,2.17 -11.63,2.43 l -0.03,-0.5 c 3.91,-0.26 7.78,-1.35 11.53,-2.41 4.86,-1.37 9.88,-2.79 15.05,-2.41 4.06,0.3 8.03,1.38 11.87,2.42 3.81,1.03 7.76,2.1 11.79,2.41 3.41,0.26 6.68,1.15 9.84,2.01 2.87,0.78 5.84,1.59 8.88,1.91 6.08,0.64 12.27,-0.65 18.24,-1.89 4.32,-0.9 8.79,-1.83 13.2,-2.03 l 0.02,0.5 c -4.37,0.2 -8.82,1.12 -13.12,2.02 -4.91,1 -9.96,2.05 -14.99,2.05 z"
   style="fill:#f5ff4f;fill-opacity:1" />
			</g>
			<g
   id="XMLID_2128_"
   style="fill:#f5ff4f;fill-opacity:1">
				<path
   id="XMLID_133_"
   class="st0"
   d="m 842.76,223.36 c -0.4,0 -0.81,0 -1.21,-0.01 -6.48,-0.07 -13.63,-0.4 -21.24,-0.97 -4.49,-0.34 -8.58,-2.19 -12.52,-3.98 -3.63,-1.65 -7.39,-3.35 -11.41,-3.84 -5.2,-0.63 -10.13,1.66 -14.89,3.88 -3.64,1.7 -7.4,3.45 -11.31,3.94 l -0.06,-0.5 c 3.84,-0.48 7.56,-2.22 11.17,-3.9 4.83,-2.25 9.82,-4.57 15.16,-3.93 4.1,0.5 7.89,2.22 11.56,3.88 3.91,1.77 7.95,3.61 12.36,3.94 7.6,0.58 14.74,0.9 21.21,0.97 4.81,0.05 9.69,-0.22 14.4,-0.49 4.77,-0.27 9.7,-0.54 14.57,-0.49 l -0.01,0.5 c -4.85,-0.06 -9.77,0.22 -14.53,0.48 -4.35,0.27 -8.82,0.52 -13.25,0.52 z"
   style="fill:#f5ff4f;fill-opacity:1" />
			</g>
			<g
   id="XMLID_2127_"
   style="fill:#f5ff4f;fill-opacity:1">
				<path
   id="XMLID_132_"
   class="st0"
   d="m 836.03,229.6 c -5.26,0 -10.53,-0.13 -15.72,-0.52 -4.6,-0.35 -8.67,-2.41 -12.61,-4.41 -3.6,-1.82 -7.32,-3.71 -11.4,-4.24 -5.23,-0.69 -9.8,1.72 -14.63,4.26 -3.63,1.91 -7.39,3.88 -11.41,4.38 l -0.06,-0.5 c 3.94,-0.49 7.65,-2.44 11.24,-4.33 4.69,-2.47 9.54,-5.02 14.93,-4.31 4.16,0.54 7.92,2.45 11.56,4.29 3.9,1.97 7.92,4.01 12.43,4.35 10.43,0.79 21.19,0.52 31.59,0.26 6.08,-0.15 12.36,-0.31 18.48,-0.26 v 0.5 c -6.11,-0.06 -12.39,0.1 -18.46,0.26 -5.26,0.13 -10.6,0.27 -15.94,0.27 z"
   style="fill:#f5ff4f;fill-opacity:1" />
			</g>
			<g
   id="XMLID_2126_"
   style="fill:#f5ff4f;fill-opacity:1">
				<path
   id="XMLID_131_"
   class="st0"
   d="m 844.47,237.59 c -0.51,0 -1.02,-0.01 -1.53,-0.02 -4.35,-0.13 -8.77,-0.57 -13.05,-1 -3.15,-0.32 -6.4,-0.64 -9.59,-0.84 -4.38,-0.27 -8.5,-1.81 -12.48,-3.3 -3.83,-1.43 -7.78,-2.91 -11.93,-3.23 -4.66,-0.36 -9.06,1.48 -13.32,3.27 -3.41,1.43 -6.94,2.91 -10.64,3.3 l -0.05,-0.5 c 3.63,-0.38 7.12,-1.84 10.49,-3.26 4.31,-1.81 8.77,-3.68 13.55,-3.31 4.22,0.33 8.21,1.82 12.07,3.26 3.95,1.48 8.03,3 12.33,3.27 3.2,0.2 6.46,0.53 9.61,0.84 4.27,0.43 8.68,0.87 13.01,1 4.61,0.14 9.23,-0.39 13.71,-0.89 3.83,-0.43 7.79,-0.88 11.73,-0.92 v 0.5 c -3.92,0.04 -7.86,0.48 -11.68,0.91 -3.97,0.46 -8.1,0.92 -12.23,0.92 z"
   style="fill:#f5ff4f;fill-opacity:1" />
			</g>
			<g
   id="XMLID_2125_"
   style="fill:#f5ff4f;fill-opacity:1">
				<path
   id="XMLID_130_"
   class="st0"
   d="m 844.53,246.94 c -0.76,0 -1.52,-0.04 -2.29,-0.14 -3.3,-0.4 -6.55,-1.25 -9.69,-2.08 -3.95,-1.04 -8.03,-2.11 -12.22,-2.27 -4.05,-0.16 -8.07,-0.88 -11.96,-1.57 -3.76,-0.67 -7.65,-1.36 -11.54,-1.54 -4.16,-0.19 -8.19,0.69 -12.1,1.54 -3.27,0.71 -6.64,1.45 -10.11,1.57 l -0.02,-0.5 c 3.42,-0.12 6.78,-0.85 10.02,-1.56 3.93,-0.86 8,-1.75 12.23,-1.55 3.92,0.18 7.83,0.88 11.61,1.55 3.87,0.69 7.88,1.4 11.89,1.56 4.24,0.17 8.35,1.25 12.33,2.29 3.13,0.82 6.36,1.67 9.63,2.06 4.68,0.57 8.82,-0.73 13.21,-2.11 3.1,-0.97 6.31,-1.98 9.7,-2.24 l 0.04,0.5 c -3.33,0.26 -6.51,1.26 -9.58,2.22 -3.59,1.12 -7.24,2.27 -11.15,2.27 z"
   style="fill:#f5ff4f;fill-opacity:1" />
			</g>
			<g
   id="XMLID_2124_"
   style="fill:#f5ff4f;fill-opacity:1">
				<path
   id="XMLID_129_"
   class="st0"
   d="m 844.58,255.69 c -0.77,0 -1.58,-0.07 -2.42,-0.22 -3.27,-0.58 -6.42,-1.82 -9.46,-3.01 -3.95,-1.55 -8.03,-3.15 -12.37,-3.31 -8.34,-0.31 -16.8,-0.19 -24.98,-0.08 -6.11,0.08 -12.43,0.17 -18.65,0.08 l 0.01,-0.5 c 6.21,0.09 12.53,0 18.64,-0.08 8.19,-0.11 16.66,-0.23 25.01,0.08 4.43,0.17 8.55,1.78 12.53,3.35 3.02,1.19 6.15,2.41 9.37,2.99 4.74,0.85 8.15,-1.01 11.76,-2.98 2.63,-1.44 5.36,-2.92 8.7,-3.35 l 0.06,0.5 c -3.25,0.42 -5.93,1.88 -8.53,3.29 -3.06,1.66 -5.97,3.24 -9.67,3.24 z"
   style="fill:#f5ff4f;fill-opacity:1" />
			</g>
			<g
   id="XMLID_2123_"
   style="fill:#f5ff4f;fill-opacity:1">
				<path
   id="XMLID_128_"
   class="st0"
   d="m 844.27,262.25 c -0.78,0 -1.6,-0.07 -2.45,-0.22 -3.22,-0.57 -6.31,-1.78 -9.3,-2.94 -3.89,-1.51 -7.92,-3.08 -12.2,-3.24 -7.65,-0.29 -15.58,-0.57 -23.46,-0.56 -3.04,0.01 -6.14,0.15 -9.13,0.29 -3.62,0.17 -7.36,0.34 -11.05,0.27 l 0.01,-0.5 c 3.67,0.06 7.4,-0.11 11.02,-0.27 3,-0.14 6.09,-0.28 9.15,-0.29 7.88,-0.02 15.82,0.27 23.48,0.56 4.36,0.16 8.43,1.74 12.36,3.27 2.97,1.16 6.04,2.35 9.21,2.92 4.74,0.84 8.29,-0.99 12.04,-2.93 2.68,-1.38 5.45,-2.82 8.74,-3.26 l 0.07,0.5 c -3.21,0.43 -5.94,1.84 -8.58,3.21 -3.16,1.62 -6.19,3.19 -9.91,3.19 z"
   style="fill:#f5ff4f;fill-opacity:1" />
			</g>
			<g
   id="XMLID_2122_"
   style="fill:#f5ff4f;fill-opacity:1">
				<path
   id="XMLID_127_"
   class="st0"
   d="m 842.8,266.1 c -0.9,0 -1.8,-0.04 -2.71,-0.14 -2.99,-0.32 -5.94,-0.99 -8.8,-1.63 -3.56,-0.81 -7.23,-1.64 -10.98,-1.79 -4.35,-0.17 -8.65,-1.03 -12.8,-1.86 -3.94,-0.79 -8.02,-1.6 -12.1,-1.82 -3.98,-0.21 -7.68,0.82 -11.26,1.82 -3.05,0.85 -6.2,1.72 -9.54,1.86 l -0.02,-0.5 c 3.29,-0.14 6.41,-1 9.43,-1.84 3.62,-1.01 7.36,-2.05 11.42,-1.83 4.13,0.22 8.22,1.04 12.18,1.83 4.14,0.83 8.42,1.68 12.73,1.85 3.79,0.15 7.49,0.99 11.07,1.8 2.84,0.65 5.78,1.31 8.74,1.63 5.01,0.53 9.98,-0.59 14.79,-1.67 3.34,-0.75 6.8,-1.53 10.27,-1.76 l 0.03,0.5 c -3.43,0.23 -6.87,1 -10.19,1.75 -4,0.88 -8.1,1.8 -12.26,1.8 z"
   style="fill:#f5ff4f;fill-opacity:1" />
			</g>
			<g
   id="XMLID_2121_"
   style="fill:#f5ff4f;fill-opacity:1">
				<path
   id="XMLID_110_"
   class="st0"
   d="m 833.83,269.47 c -4.53,0 -9.07,-0.07 -13.56,-0.29 -4.98,-0.24 -9.65,-2.1 -14.16,-3.9 -4.22,-1.69 -8.59,-3.43 -13.18,-3.81 -4.32,-0.36 -7.81,1.67 -11.51,3.83 -2.94,1.71 -5.98,3.48 -9.48,3.94 l -0.06,-0.5 c 3.39,-0.44 6.39,-2.19 9.29,-3.88 3.6,-2.1 7.34,-4.27 11.81,-3.89 4.66,0.39 9.06,2.15 13.32,3.85 4.48,1.79 9.1,3.63 14,3.87 9.08,0.44 18.37,0.29 27.36,0.14 6.81,-0.11 13.85,-0.23 20.74,-0.09 l -0.01,0.5 c -6.89,-0.14 -13.92,-0.03 -20.72,0.09 -4.55,0.06 -9.19,0.14 -13.84,0.14 z"
   style="fill:#f5ff4f;fill-opacity:1" />
			</g>
			<g
   id="XMLID_2120_"
   style="fill:#f5ff4f;fill-opacity:1">
				<path
   id="XMLID_109_"
   class="st0"
   d="m 821.24,275.94 c -0.31,0 -0.62,-0.01 -0.92,-0.02 -5.38,-0.27 -10.2,-2.78 -14.86,-5.21 -4.14,-2.16 -8.43,-4.39 -13.06,-5.01 -4.96,-0.67 -8.49,2.07 -12.24,4.96 -2.96,2.29 -6.03,4.66 -9.9,5.26 l -0.08,-0.49 c 3.74,-0.58 6.76,-2.91 9.67,-5.16 3.66,-2.83 7.44,-5.75 12.61,-5.06 4.72,0.63 9.04,2.88 13.22,5.06 4.61,2.41 9.38,4.89 14.66,5.16 3.14,0.16 6.29,-0.56 9.34,-1.25 2.2,-0.5 4.48,-1.02 6.75,-1.2 6.9,-0.57 14.04,0.32 20.94,1.18 4.3,0.54 8.76,1.09 13.06,1.27 l -0.02,0.5 c -4.33,-0.19 -8.79,-0.74 -13.1,-1.28 -6.88,-0.86 -13.98,-1.74 -20.84,-1.17 -2.23,0.18 -4.49,0.7 -6.68,1.19 -2.78,0.62 -5.65,1.27 -8.55,1.27 z"
   style="fill:#f5ff4f;fill-opacity:1" />
			</g>
			<g
   id="XMLID_2118_"
   style="fill:#f5ff4f;fill-opacity:1">
				<path
   id="XMLID_106_"
   class="st0"
   d="m 821.14,282.64 c -0.27,0 -0.55,-0.01 -0.83,-0.02 -5.32,-0.28 -10.07,-2.73 -14.67,-5.11 -4.11,-2.12 -8.35,-4.31 -12.96,-4.91 -4.97,-0.65 -8.59,2.03 -12.43,4.87 -3.04,2.25 -6.19,4.58 -10.09,5.15 l -0.07,-0.5 c 3.78,-0.55 6.87,-2.84 9.86,-5.05 3.75,-2.77 7.62,-5.64 12.79,-4.97 4.69,0.61 8.98,2.83 13.12,4.97 4.55,2.35 9.25,4.78 14.46,5.05 3.26,0.17 6.36,-0.75 9.37,-1.65 2.28,-0.68 4.65,-1.39 7.09,-1.62 6.49,-0.62 13.08,0.49 19.46,1.56 4.69,0.79 9.53,1.6 14.27,1.71 l -0.01,0.5 c -4.77,-0.11 -9.64,-0.93 -14.34,-1.72 -6.35,-1.06 -12.91,-2.16 -19.33,-1.55 -2.4,0.23 -4.73,0.93 -7,1.6 -2.77,0.83 -5.65,1.69 -8.69,1.69 z"
   style="fill:#f5ff4f;fill-opacity:1" />
			</g>
			<g
   id="XMLID_2117_"
   style="fill:#f5ff4f;fill-opacity:1">
				<path
   id="XMLID_42_"
   class="st0"
   d="m 820.63,289.31 c -0.1,0 -0.21,0 -0.31,0 -5.12,-0.11 -9.75,-2.36 -14.24,-4.52 -3.9,-1.89 -7.94,-3.84 -12.24,-4.35 -4.97,-0.59 -8.9,1.8 -13.06,4.34 -3.28,2 -6.67,4.06 -10.62,4.54 l -0.06,-0.5 c 3.84,-0.46 7.18,-2.5 10.42,-4.47 4.05,-2.47 8.25,-5.02 13.38,-4.41 4.39,0.53 8.46,2.49 12.4,4.4 4.44,2.14 9.02,4.36 14.03,4.47 3.63,0.06 6.9,-1.32 10.07,-2.67 2.49,-1.07 5.07,-2.17 7.84,-2.57 6.33,-0.93 12.79,0.84 19.03,2.54 4.37,1.19 8.89,2.43 13.27,2.7 l -0.03,0.5 c -4.43,-0.28 -8.98,-1.52 -13.38,-2.72 -6.19,-1.69 -12.6,-3.44 -18.83,-2.53 -2.7,0.4 -5.25,1.48 -7.71,2.54 -3.12,1.33 -6.35,2.71 -9.96,2.71 z"
   style="fill:#f5ff4f;fill-opacity:1" />
			</g>
			<g
   id="XMLID_2116_"
   style="fill:#f5ff4f;fill-opacity:1">
				<path
   id="XMLID_41_"
   class="st0"
   d="m 820.15,296 c -4.82,0 -9.27,-1.98 -13.57,-3.89 -3.68,-1.63 -7.49,-3.33 -11.49,-3.75 -5.01,-0.54 -9.24,1.54 -13.71,3.74 -3.53,1.73 -7.18,3.53 -11.22,3.89 l -0.04,-0.5 c 3.95,-0.36 7.56,-2.13 11.04,-3.84 4.34,-2.13 8.84,-4.34 13.99,-3.79 4.08,0.44 7.92,2.14 11.64,3.79 4.31,1.91 8.78,3.92 13.54,3.84 4.02,-0.04 7.51,-1.94 10.88,-3.78 2.7,-1.47 5.49,-3 8.58,-3.59 6.16,-1.2 12.36,1.26 18.37,3.64 4.08,1.62 8.31,3.29 12.4,3.74 l -0.05,0.5 c -4.16,-0.46 -8.41,-2.14 -12.53,-3.77 -5.94,-2.35 -12.07,-4.78 -18.09,-3.61 -3.01,0.58 -5.77,2.09 -8.44,3.54 -3.42,1.87 -6.96,3.8 -11.11,3.84 -0.07,0 -0.13,0 -0.19,0 z"
   style="fill:#f5ff4f;fill-opacity:1" />
			</g>
			<g
   id="XMLID_2115_"
   style="fill:#f5ff4f;fill-opacity:1">
				<path
   id="XMLID_40_"
   class="st0"
   d="m 820.11,302.69 c -4.66,0 -9.01,-1.82 -13.22,-3.58 -3.6,-1.5 -7.32,-3.06 -11.19,-3.45 -5.04,-0.52 -9.69,1.51 -14.18,3.46 -3.62,1.57 -7.36,3.2 -11.36,3.57 l -0.05,-0.5 c 3.92,-0.36 7.62,-1.97 11.2,-3.53 4.55,-1.98 9.26,-4.03 14.43,-3.5 3.95,0.4 7.7,1.97 11.33,3.49 4.23,1.77 8.6,3.63 13.25,3.54 4.25,-0.05 7.82,-2.22 11.28,-4.32 2.8,-1.69 5.69,-3.45 8.96,-4.13 6.1,-1.26 11.95,1.48 17.6,4.14 4.03,1.9 8.2,3.85 12.39,4.3 l -0.05,0.5 c -4.27,-0.46 -8.48,-2.44 -12.55,-4.35 -5.58,-2.62 -11.35,-5.34 -17.29,-4.1 -3.18,0.66 -6.04,2.39 -8.8,4.06 -3.52,2.13 -7.15,4.33 -11.54,4.39 -0.06,0.01 -0.14,0.01 -0.21,0.01 z"
   style="fill:#f5ff4f;fill-opacity:1" />
			</g>
		</g>
		<g
   id="XMLID_2097_"
   style="fill:#f5ff4f;fill-opacity:1">
			<g
   id="XMLID_2113_"
   style="fill:#f5ff4f;fill-opacity:1">
				<path
   id="XMLID_39_"
   class="st0"
   d="m 870.77,302.44 h -0.5 c 0,-2.75 0.1,-5.62 0.2,-8.4 0.22,-6.19 0.44,-12.59 -0.37,-18.54 -0.51,-3.72 -2.24,-7.18 -3.92,-10.52 -2,-3.99 -4.07,-8.11 -4.1,-12.73 -0.03,-4.62 2.08,-8.77 4.12,-12.78 1.52,-2.99 3.09,-6.08 3.75,-9.32 1.22,-6.07 0.9,-12.96 0.59,-19.61 -0.14,-2.96 -0.27,-5.76 -0.27,-8.48 h 0.5 c 0,2.7 0.13,5.5 0.27,8.45 0.31,6.69 0.63,13.6 -0.6,19.74 -0.67,3.31 -2.25,6.43 -3.79,9.45 -2.01,3.96 -4.1,8.05 -4.07,12.55 0.03,4.5 2.07,8.57 4.05,12.51 1.7,3.38 3.45,6.88 3.97,10.68 0.82,6 0.59,12.42 0.38,18.63 -0.1,2.77 -0.21,5.64 -0.21,8.37 z"
   style="fill:#f5ff4f;fill-opacity:1" />
			</g>
			<g
   id="XMLID_2112_"
   style="fill:#f5ff4f;fill-opacity:1">
				<path
   id="XMLID_38_"
   class="st0"
   d="m 863.76,300.9 h -0.5 c 0.01,-7.71 -0.09,-16.74 -0.88,-25.32 -0.32,-3.48 -1.52,-6.84 -2.69,-10.1 -1.37,-3.83 -2.78,-7.79 -2.79,-11.97 0,-4.71 1.69,-9.19 3.33,-13.53 1.27,-3.37 2.59,-6.85 3.09,-10.39 0.72,-5.12 0.17,-10.45 -0.37,-15.59 -0.35,-3.41 -0.72,-6.93 -0.72,-10.36 h 0.5 c -0.01,3.4 0.36,6.91 0.71,10.3 0.54,5.18 1.1,10.53 0.37,15.71 -0.51,3.6 -1.83,7.11 -3.11,10.5 -1.62,4.29 -3.3,8.73 -3.3,13.35 0,4.1 1.4,8.01 2.76,11.8 1.17,3.29 2.39,6.68 2.72,10.22 0.79,8.61 0.89,17.66 0.88,25.38 z"
   style="fill:#f5ff4f;fill-opacity:1" />
			</g>
			<g
   id="XMLID_2111_"
   style="fill:#f5ff4f;fill-opacity:1">
				<path
   id="XMLID_37_"
   class="st0"
   d="m 855.88,297.61 c -0.14,-3.71 -0.68,-7.42 -1.2,-11 -0.59,-4.07 -1.21,-8.27 -1.24,-12.51 -0.02,-2.27 -0.07,-4.59 -0.13,-6.83 -0.09,-3.65 -0.18,-7.43 -0.11,-11.15 0.09,-4.88 0.99,-9.73 1.85,-14.41 0.68,-3.67 1.38,-7.46 1.69,-11.24 0.38,-4.69 -0.83,-9.06 -2.01,-13.27 -0.91,-3.25 -1.85,-6.61 -2.08,-10.16 l 0.5,-0.03 c 0.23,3.5 1.16,6.83 2.06,10.06 1.19,4.26 2.42,8.66 2.03,13.45 -0.31,3.8 -1.01,7.61 -1.69,11.29 -0.86,4.67 -1.75,9.5 -1.84,14.33 -0.07,3.7 0.02,7.48 0.11,11.12 0.05,2.24 0.11,4.56 0.13,6.84 0.03,4.2 0.64,8.39 1.23,12.44 0.52,3.6 1.07,7.32 1.21,11.06 z"
   style="fill:#f5ff4f;fill-opacity:1" />
			</g>
			<g
   id="XMLID_2110_"
   style="fill:#f5ff4f;fill-opacity:1">
				<path
   id="XMLID_36_"
   class="st0"
   d="m 848.55,294.57 c -0.22,-2.93 -1.1,-5.91 -1.95,-8.79 -1.21,-4.1 -2.45,-8.33 -1.88,-12.6 0.33,-2.49 1.33,-4.73 2.29,-6.89 1.07,-2.41 2.17,-4.9 2.34,-7.73 0.51,-8.72 0.8,-18.08 0.87,-27.8 0.02,-3.7 -0.12,-6.81 -2.21,-10.28 -0.44,-0.73 -0.86,-1.39 -1.26,-2.02 -1.65,-2.58 -2.95,-4.62 -3.45,-8.27 l 0.5,-0.07 c 0.48,3.54 1.76,5.53 3.37,8.07 0.4,0.63 0.83,1.3 1.27,2.03 2.15,3.58 2.31,6.89 2.28,10.54 -0.06,9.74 -0.36,19.1 -0.87,27.83 -0.17,2.91 -1.3,5.45 -2.38,7.9 -0.95,2.13 -1.92,4.34 -2.25,6.76 -0.56,4.16 0.67,8.34 1.87,12.39 0.86,2.9 1.74,5.91 1.96,8.9 z"
   style="fill:#f5ff4f;fill-opacity:1" />
			</g>
			<g
   id="XMLID_2109_"
   style="fill:#f5ff4f;fill-opacity:1">
				<path
   id="XMLID_35_"
   class="st0"
   d="m 841.68,293.77 c -0.23,-2.97 -1.21,-5.89 -2.15,-8.71 -1.22,-3.67 -2.49,-7.46 -2.14,-11.45 0.25,-2.87 1.67,-5.04 3.04,-7.15 1.4,-2.15 2.86,-4.38 3.03,-7.34 0.39,-6.55 0.27,-13.29 0.15,-19.81 -0.06,-3.07 -0.11,-6.25 -0.12,-9.35 0,-3.37 -0.17,-6.17 -2.21,-9.02 -0.6,-0.83 -1.16,-1.54 -1.7,-2.22 -1.77,-2.22 -3.16,-3.98 -3.7,-7.72 l 0.5,-0.07 c 0.52,3.61 1.81,5.23 3.59,7.48 0.54,0.68 1.11,1.39 1.71,2.23 2.13,2.96 2.31,5.85 2.31,9.31 0,3.1 0.06,6.27 0.12,9.34 0.12,6.53 0.24,13.28 -0.15,19.85 -0.18,3.1 -1.67,5.38 -3.11,7.59 -1.4,2.15 -2.73,4.18 -2.96,6.92 -0.34,3.88 0.91,7.62 2.12,11.24 0.95,2.85 1.93,5.79 2.17,8.83 z"
   style="fill:#f5ff4f;fill-opacity:1" />
			</g>
			<g
   id="XMLID_2108_"
   style="fill:#f5ff4f;fill-opacity:1">
				<path
   id="XMLID_34_"
   class="st0"
   d="m 835.45,295.94 c -0.18,-3.09 -0.92,-6.23 -1.62,-9.26 -0.95,-4.08 -1.94,-8.29 -1.62,-12.51 0.22,-2.94 1.27,-5.61 2.29,-8.2 1.06,-2.7 2.16,-5.49 2.29,-8.57 0.3,-7.08 0.2,-14.34 0.1,-21.36 -0.03,-2.05 -0.06,-4.1 -0.08,-6.14 -0.03,-3.76 -0.37,-6.77 -1.95,-10.16 -0.19,-0.4 -0.37,-0.79 -0.55,-1.18 -1.51,-3.22 -2.81,-6 -3.22,-9.79 l 0.5,-0.05 c 0.4,3.71 1.68,6.45 3.17,9.63 0.18,0.39 0.36,0.78 0.55,1.18 1.6,3.47 1.96,6.65 1.99,10.37 0.02,2.04 0.05,4.09 0.08,6.14 0.1,7.03 0.2,14.29 -0.1,21.38 -0.14,3.16 -1.25,5.99 -2.33,8.73 -1,2.55 -2.04,5.19 -2.26,8.05 -0.31,4.14 0.66,8.32 1.61,12.36 0.71,3.05 1.45,6.21 1.64,9.34 z"
   style="fill:#f5ff4f;fill-opacity:1" />
			</g>
			<g
   id="XMLID_2107_"
   style="fill:#f5ff4f;fill-opacity:1">
				<path
   id="XMLID_33_"
   class="st0"
   d="m 829.47,299.35 c -0.06,-3.66 -0.43,-7.36 -0.79,-10.95 -0.46,-4.54 -0.93,-9.23 -0.76,-13.88 0.11,-3.22 0.61,-6.42 1.09,-9.53 0.52,-3.34 1.05,-6.8 1.11,-10.26 0.08,-5.35 0.05,-10.8 0.03,-16.07 -0.01,-2.77 -0.03,-5.55 -0.03,-8.32 0,-4.47 -0.69,-8.87 -1.36,-13.13 -0.61,-3.88 -1.24,-7.9 -1.35,-11.97 l 0.5,-0.01 c 0.11,4.03 0.74,8.03 1.35,11.9 0.67,4.28 1.37,8.7 1.37,13.21 0,2.77 0.01,5.54 0.03,8.32 0.03,5.27 0.05,10.72 -0.03,16.08 -0.05,3.5 -0.59,6.97 -1.11,10.33 -0.48,3.09 -0.97,6.28 -1.09,9.47 -0.16,4.62 0.31,9.29 0.76,13.81 0.36,3.59 0.73,7.31 0.79,10.99 z"
   style="fill:#f5ff4f;fill-opacity:1" />
			</g>
			<g
   id="XMLID_2106_"
   style="fill:#f5ff4f;fill-opacity:1">
				<path
   id="XMLID_32_"
   class="st0"
   d="m 823.84,302.02 h -0.5 c 0.12,-15.43 -0.03,-31.13 -0.18,-46.32 -0.17,-17.44 -0.34,-35.48 -0.11,-53.21 l 0.5,0.01 c -0.23,17.72 -0.06,35.75 0.11,53.19 0.14,15.19 0.29,30.89 0.18,46.33 z"
   style="fill:#f5ff4f;fill-opacity:1" />
			</g>
			<g
   id="XMLID_2105_"
   style="fill:#f5ff4f;fill-opacity:1">
				<path
   id="XMLID_31_"
   class="st0"
   d="m 817.16,302.1 h -0.5 c 0.17,-29.4 0.13,-59.3 0.09,-88.21 l -0.02,-11.83 h 0.5 l 0.02,11.83 c 0.04,28.91 0.09,58.81 -0.09,88.21 z"
   style="fill:#f5ff4f;fill-opacity:1" />
			</g>
			<g
   id="XMLID_2104_"
   style="fill:#f5ff4f;fill-opacity:1">
				<path
   id="XMLID_30_"
   class="st0"
   d="m 809.54,299.92 c -0.04,-4.1 -0.33,-8.27 -0.61,-12.3 -0.34,-5.01 -0.7,-10.18 -0.6,-15.29 0.07,-3.29 0.47,-6.59 0.85,-9.78 0.41,-3.36 0.83,-6.84 0.86,-10.3 0.08,-9.84 0.05,-19.85 0.02,-29.53 -0.02,-6.77 -0.04,-13.77 -0.02,-20.66 h 0.5 c -0.02,6.88 0,13.88 0.02,20.66 0.03,9.68 0.06,19.7 -0.02,29.54 -0.03,3.48 -0.45,6.98 -0.86,10.36 -0.38,3.18 -0.78,6.47 -0.85,9.73 -0.1,5.08 0.25,10.25 0.6,15.25 0.28,4.04 0.57,8.21 0.61,12.33 z"
   style="fill:#f5ff4f;fill-opacity:1" />
			</g>
			<g
   id="XMLID_2103_"
   style="fill:#f5ff4f;fill-opacity:1">
				<path
   id="XMLID_29_"
   class="st0"
   d="m 802.3,297.13 c -0.15,-3.87 -0.73,-7.88 -1.29,-11.75 -0.84,-5.81 -1.7,-11.82 -1.18,-17.63 0.23,-2.56 1,-4.98 1.74,-7.32 0.83,-2.61 1.69,-5.31 1.78,-8.19 0.19,-5.88 -0.04,-11.9 -0.26,-17.71 -0.13,-3.47 -0.26,-7.05 -0.31,-10.56 -0.05,-4.2 0.12,-8.45 0.28,-12.56 0.12,-3.07 0.25,-6.24 0.28,-9.36 h 0.5 c -0.03,3.13 -0.16,6.31 -0.29,9.38 -0.17,4.1 -0.34,8.35 -0.28,12.53 0.05,3.51 0.18,7.09 0.31,10.55 0.22,5.82 0.44,11.85 0.26,17.75 -0.09,2.95 -0.96,5.68 -1.8,8.33 -0.73,2.31 -1.49,4.71 -1.72,7.21 -0.52,5.75 0.35,11.73 1.18,17.51 0.56,3.89 1.14,7.91 1.29,11.81 z"
   style="fill:#f5ff4f;fill-opacity:1" />
			</g>
			<g
   id="XMLID_2102_"
   style="fill:#f5ff4f;fill-opacity:1">
				<path
   id="XMLID_27_"
   class="st0"
   d="m 795.26,295.36 c -0.25,-5.19 -1.05,-10.14 -1.89,-15.39 l -0.19,-1.21 c -0.12,-0.73 -0.25,-1.47 -0.38,-2.23 -0.66,-3.79 -1.41,-8.08 -0.77,-11.89 0.37,-2.2 1.34,-3.98 2.28,-5.7 1.15,-2.1 2.23,-4.08 2.33,-6.79 0.24,-6.39 -0.06,-12.92 -0.34,-19.24 -0.17,-3.88 -0.35,-7.9 -0.41,-11.83 -0.05,-3.56 0.17,-7.14 0.39,-10.61 0.17,-2.76 0.35,-5.61 0.39,-8.43 l 0.5,0.01 c -0.04,2.83 -0.22,5.69 -0.39,8.45 -0.21,3.46 -0.44,7.03 -0.39,10.57 0.05,3.93 0.24,7.94 0.41,11.82 0.28,6.33 0.58,12.88 0.34,19.28 -0.11,2.84 -1.27,4.96 -2.4,7.02 -0.92,1.68 -1.87,3.42 -2.23,5.54 -0.62,3.72 0.12,7.97 0.77,11.72 0.13,0.76 0.26,1.5 0.38,2.23 l 0.19,1.21 c 0.81,5.03 1.65,10.22 1.9,15.44 z"
   style="fill:#f5ff4f;fill-opacity:1" />
			</g>
			<g
   id="XMLID_2101_"
   style="fill:#f5ff4f;fill-opacity:1">
				<path
   id="XMLID_24_"
   class="st0"
   d="m 788.69,296.02 c -0.18,-3.79 -0.9,-7.81 -1.59,-11.7 -1.08,-6.06 -2.2,-12.33 -1.42,-18.18 0.33,-2.49 1.43,-4.56 2.49,-6.56 1.23,-2.32 2.38,-4.5 2.51,-7.33 0.26,-5.84 -0.22,-11.81 -0.69,-17.58 -0.32,-3.94 -0.64,-8.01 -0.73,-12 -0.09,-3.98 0.13,-8.01 0.35,-11.9 0.16,-2.85 0.32,-5.8 0.36,-8.71 l 0.5,0.01 c -0.04,2.92 -0.2,5.87 -0.36,8.73 -0.21,3.88 -0.43,7.9 -0.34,11.86 0.09,3.98 0.42,8.04 0.73,11.97 0.47,5.79 0.95,11.77 0.69,17.64 -0.13,2.94 -1.37,5.28 -2.57,7.54 -1.04,1.96 -2.11,3.99 -2.43,6.39 -0.77,5.77 0.34,12 1.42,18.03 0.7,3.91 1.42,7.95 1.6,11.77 z"
   style="fill:#f5ff4f;fill-opacity:1" />
			</g>
			<g
   id="XMLID_2100_"
   style="fill:#f5ff4f;fill-opacity:1">
				<path
   id="XMLID_23_"
   class="st0"
   d="m 782.49,298.5 c -0.09,-3.74 -0.55,-7.61 -0.99,-11.35 -0.66,-5.57 -1.33,-11.33 -0.86,-16.89 0.27,-3.18 1.58,-5.99 2.85,-8.7 1.36,-2.91 2.76,-5.92 2.85,-9.35 0.13,-5.16 -0.82,-10.38 -1.74,-15.43 -0.71,-3.89 -1.44,-7.92 -1.68,-11.91 -0.28,-4.81 -0.09,-9.72 0.1,-14.47 0.11,-2.74 0.22,-5.58 0.24,-8.36 h 0.5 c -0.02,2.79 -0.13,5.63 -0.24,8.37 -0.19,4.74 -0.38,9.64 -0.1,14.42 0.23,3.96 0.96,7.97 1.67,11.85 0.92,5.07 1.88,10.31 1.74,15.53 -0.09,3.53 -1.52,6.59 -2.9,9.54 -1.25,2.68 -2.54,5.44 -2.81,8.54 -0.47,5.51 0.2,11.25 0.86,16.79 0.44,3.75 0.9,7.63 0.99,11.4 z"
   style="fill:#f5ff4f;fill-opacity:1" />
			</g>
			<g
   id="XMLID_2099_"
   style="fill:#f5ff4f;fill-opacity:1">
				<path
   id="XMLID_22_"
   class="st0"
   d="m 776.83,301.18 h -0.5 c 0,-3.35 -0.21,-6.83 -0.41,-10.2 -0.35,-5.77 -0.71,-11.73 -0.04,-17.42 0.41,-3.48 1.81,-6.71 3.16,-9.84 1.57,-3.63 3.19,-7.38 3.22,-11.48 0.04,-4.65 -1.46,-9.24 -2.91,-13.68 -1.05,-3.23 -2.14,-6.57 -2.63,-9.91 -0.86,-5.86 -0.61,-12.13 -0.37,-18.2 0.11,-2.78 0.23,-5.66 0.23,-8.4 h 0.5 c 0,2.75 -0.11,5.64 -0.23,8.42 -0.24,6.04 -0.49,12.29 0.36,18.11 0.48,3.3 1.57,6.62 2.61,9.83 1.46,4.48 2.97,9.11 2.93,13.84 -0.04,4.2 -1.68,8 -3.26,11.67 -1.34,3.09 -2.72,6.29 -3.12,9.7 -0.67,5.64 -0.31,11.58 0.04,17.33 0.21,3.38 0.42,6.87 0.42,10.23 z"
   style="fill:#f5ff4f;fill-opacity:1" />
			</g>
			<g
   id="XMLID_2098_"
   style="fill:#f5ff4f;fill-opacity:1">
				<path
   id="XMLID_15_"
   class="st0"
   d="m 770.38,302.44 h -0.5 c 0,-2.76 -0.09,-5.64 -0.17,-8.42 -0.19,-6.17 -0.38,-12.54 0.32,-18.58 0.43,-3.74 1.91,-7.27 3.33,-10.69 1.66,-3.98 3.38,-8.09 3.41,-12.5 0.02,-4.41 -1.73,-8.54 -3.42,-12.53 -1.29,-3.05 -2.63,-6.2 -3.19,-9.48 -1.06,-6.23 -0.78,-13.05 -0.52,-19.65 0.12,-2.97 0.23,-5.78 0.23,-8.54 h 0.5 c 0,2.77 -0.11,5.58 -0.23,8.56 -0.26,6.57 -0.54,13.37 0.51,19.54 0.55,3.23 1.87,6.35 3.15,9.37 1.71,4.04 3.48,8.21 3.46,12.73 -0.03,4.51 -1.76,8.67 -3.44,12.69 -1.41,3.38 -2.88,6.88 -3.3,10.55 -0.69,6.01 -0.5,12.36 -0.32,18.51 0.1,2.79 0.18,5.67 0.18,8.44 z"
   style="fill:#f5ff4f;fill-opacity:1" />
			</g>
		</g>
	</g>
</g>
</svg>
