<?xml version="1.0" encoding="UTF-8" standalone="no"?>
<!-- Generator: Adobe Illustrator 23.0.1, SVG Export Plug-In . SVG Version: 6.00 Build 0)  -->

<svg
   version="1.1"
   id="Layer_1"
   x="0px"
   y="0px"
   viewBox="0 0 105.56 105.56"
   xml:space="preserve"
   sodipodi:docname="skills_bg.svg"
   width="105.56"
   height="105.56"
   inkscape:version="1.1 (c4e8f9e, 2021-05-24)"
   xmlns:inkscape="http://www.inkscape.org/namespaces/inkscape"
   xmlns:sodipodi="http://sodipodi.sourceforge.net/DTD/sodipodi-0.dtd"
   xmlns="http://www.w3.org/2000/svg"
   xmlns:svg="http://www.w3.org/2000/svg"><defs
   id="defs658" /><sodipodi:namedview
   id="namedview656"
   pagecolor="#505050"
   bordercolor="#eeeeee"
   borderopacity="1"
   inkscape:pageshadow="0"
   inkscape:pageopacity="0"
   inkscape:pagecheckerboard="0"
   showgrid="false"
   inkscape:zoom="0.74024961"
   inkscape:cx="-173.59009"
   inkscape:cy="307.32877"
   inkscape:window-width="1296"
   inkscape:window-height="1081"
   inkscape:window-x="0"
   inkscape:window-y="25"
   inkscape:window-maximized="0"
   inkscape:current-layer="Layer_1" />
<style
   type="text/css"
   id="style585">
	.st0{fill:#231F20;}
</style>
<g
   id="XMLID_175_"
   transform="translate(-904.58002,-197.19)"
   style="fill:#f9f9f9">
	<g
   id="XMLID_14533_"
   style="fill:#f9f9f9">
		<g
   id="XMLID_14551_"
   style="fill:#f9f9f9">
			<g
   id="XMLID_14567_"
   style="fill:#f9f9f9">
				<rect
   id="XMLID_14830_"
   x="904.83002"
   y="197.19"
   class="st0"
   width="105.06"
   height="0.5"
   style="fill:#f9f9f9" />
			</g>
			<g
   id="XMLID_14566_"
   style="fill:#f9f9f9">
				<path
   id="XMLID_14829_"
   class="st0"
   d="m 957.36,204.7 c -17.51,0 -35.02,0 -52.53,0 v -0.5 c 35.02,0.01 70.04,0.01 105.06,0 v 0.5 c -17.51,0 -35.02,0 -52.53,0 z"
   style="fill:#f9f9f9" />
			</g>
			<g
   id="XMLID_14565_"
   style="fill:#f9f9f9">
				<path
   id="XMLID_14828_"
   class="st0"
   d="m 904.83,211.7 -0.01,-0.5 c 36.55,-0.77 70.92,-0.77 105.07,0 l -0.01,0.5 c -34.15,-0.77 -68.51,-0.77 -105.05,0 z"
   style="fill:#f9f9f9" />
			</g>
			<g
   id="XMLID_14564_"
   style="fill:#f9f9f9">
				<path
   id="XMLID_14827_"
   class="st0"
   d="m 904.84,218.7 -0.03,-0.5 c 8.35,-0.44 16.86,-1.46 25.1,-2.45 11.64,-1.39 23.67,-2.84 35.48,-2.68 8.33,0.11 16.66,1.4 24.7,2.66 6.46,1.01 13.15,2.05 19.81,2.47 l -0.03,0.5 c -6.68,-0.42 -13.38,-1.47 -19.85,-2.47 -8.03,-1.25 -16.33,-2.54 -24.63,-2.65 -11.78,-0.16 -23.79,1.28 -35.41,2.67 -8.25,0.99 -16.78,2.01 -25.14,2.45 z"
   style="fill:#f9f9f9" />
			</g>
			<g
   id="XMLID_14563_"
   style="fill:#f9f9f9">
				<path
   id="XMLID_14826_"
   class="st0"
   d="m 1009.32,225.71 c -7.07,0 -13.84,-2.01 -20.4,-3.96 -6.17,-1.83 -12.56,-3.73 -19.18,-3.95 -12.91,-0.43 -26.32,1.92 -39.29,4.18 -8.44,1.47 -17.17,3 -25.6,3.72 l -0.04,-0.5 c 8.41,-0.73 17.13,-2.25 25.56,-3.72 13,-2.27 26.44,-4.61 39.4,-4.19 6.68,0.22 13.1,2.13 19.3,3.97 6.7,1.99 13.63,4.05 20.82,3.94 l 0.01,0.5 c -0.2,0.01 -0.39,0.01 -0.58,0.01 z"
   style="fill:#f9f9f9" />
			</g>
			<g
   id="XMLID_14562_"
   style="fill:#f9f9f9">
				<path
   id="XMLID_14825_"
   class="st0"
   d="m 1009.42,232.71 c -6.62,0 -12.59,-2.69 -18.38,-5.29 -5.39,-2.43 -10.97,-4.94 -17.09,-5.3 -13.71,-0.83 -28.5,2.47 -42.79,5.65 -8.75,1.95 -17.79,3.96 -26.3,4.94 l -0.06,-0.5 c 8.48,-0.97 17.52,-2.98 26.25,-4.93 14.33,-3.19 29.14,-6.49 42.93,-5.67 6.21,0.37 11.83,2.9 17.26,5.35 5.87,2.64 11.92,5.37 18.64,5.25 l 0.01,0.5 c -0.16,0 -0.32,0 -0.47,0 z"
   style="fill:#f9f9f9" />
			</g>
			<g
   id="XMLID_14561_"
   style="fill:#f9f9f9">
				<path
   id="XMLID_14824_"
   class="st0"
   d="m 1009.28,239.72 c -6.2,0 -11.43,-3.23 -16.48,-6.36 -4.73,-2.93 -9.62,-5.95 -15.38,-6.46 -14.16,-1.24 -30.1,2.88 -45.52,6.87 -9.5,2.46 -18.48,4.78 -27.04,5.93 l -0.07,-0.5 c 8.53,-1.14 17.49,-3.46 26.98,-5.92 15.46,-4 31.44,-8.14 45.69,-6.89 5.88,0.52 10.82,3.57 15.6,6.53 5.4,3.34 10.52,6.51 16.82,6.28 l 0.02,0.5 c -0.21,0.02 -0.42,0.02 -0.62,0.02 z"
   style="fill:#f9f9f9" />
			</g>
			<g
   id="XMLID_14560_"
   style="fill:#f9f9f9">
				<path
   id="XMLID_14823_"
   class="st0"
   d="m 1008.92,246.75 c -5.81,0 -10.31,-3.4 -15.06,-6.98 -4.31,-3.26 -8.77,-6.63 -14.33,-7.22 -14.33,-1.52 -30.89,3.12 -46.9,7.6 -9.82,2.75 -19.1,5.34 -27.78,6.57 l -0.07,-0.5 c 8.65,-1.22 17.91,-3.81 27.71,-6.56 16.06,-4.49 32.67,-9.14 47.09,-7.61 5.69,0.6 10.21,4.01 14.57,7.31 4.93,3.73 9.6,7.26 15.7,6.85 l 0.03,0.5 c -0.31,0.03 -0.63,0.04 -0.96,0.04 z"
   style="fill:#f9f9f9" />
			</g>
			<g
   id="XMLID_14559_"
   style="fill:#f9f9f9">
				<path
   id="XMLID_14822_"
   class="st0"
   d="m 1008.92,253.75 c -5.81,0 -10.31,-3.4 -15.06,-6.98 -4.31,-3.26 -8.77,-6.63 -14.33,-7.22 -14.33,-1.52 -30.89,3.12 -46.9,7.6 -9.82,2.75 -19.1,5.34 -27.78,6.57 l -0.07,-0.5 c 8.65,-1.22 17.91,-3.81 27.71,-6.56 16.06,-4.49 32.67,-9.14 47.09,-7.61 5.69,0.6 10.21,4.01 14.57,7.31 4.93,3.73 9.6,7.25 15.7,6.85 l 0.03,0.5 c -0.31,0.03 -0.63,0.04 -0.96,0.04 z"
   style="fill:#f9f9f9" />
			</g>
			<g
   id="XMLID_14558_"
   style="fill:#f9f9f9">
				<path
   id="XMLID_14821_"
   class="st0"
   d="m 1009.28,260.74 c -6.2,0 -11.43,-3.23 -16.48,-6.36 -4.73,-2.93 -9.62,-5.95 -15.38,-6.46 -14.17,-1.25 -30.1,2.88 -45.52,6.87 -9.5,2.46 -18.48,4.78 -27.04,5.93 l -0.07,-0.5 c 8.53,-1.14 17.49,-3.46 26.98,-5.92 15.46,-4 31.44,-8.14 45.69,-6.89 5.88,0.52 10.82,3.57 15.6,6.53 5.4,3.34 10.49,6.5 16.82,6.28 l 0.02,0.5 c -0.21,0.01 -0.42,0.02 -0.62,0.02 z"
   style="fill:#f9f9f9" />
			</g>
			<g
   id="XMLID_14557_"
   style="fill:#f9f9f9">
				<path
   id="XMLID_14820_"
   class="st0"
   d="m 1009.42,267.73 c -6.62,0 -12.59,-2.69 -18.38,-5.29 -5.39,-2.43 -10.97,-4.94 -17.09,-5.3 -13.71,-0.82 -28.5,2.47 -42.79,5.65 -8.75,1.95 -17.8,3.96 -26.31,4.94 l -0.06,-0.5 c 8.48,-0.97 17.52,-2.98 26.25,-4.93 14.33,-3.19 29.14,-6.49 42.93,-5.66 6.21,0.37 11.83,2.9 17.26,5.35 5.87,2.64 11.97,5.37 18.64,5.25 l 0.01,0.5 c -0.15,-0.01 -0.31,-0.01 -0.46,-0.01 z"
   style="fill:#f9f9f9" />
			</g>
			<g
   id="XMLID_14556_"
   style="fill:#f9f9f9">
				<path
   id="XMLID_14819_"
   class="st0"
   d="m 1009.32,274.74 c -7.07,0 -13.84,-2.01 -20.4,-3.96 -6.17,-1.83 -12.56,-3.73 -19.18,-3.95 -12.91,-0.42 -26.32,1.92 -39.29,4.18 -8.44,1.47 -17.17,3 -25.6,3.72 l -0.04,-0.5 c 8.41,-0.73 17.13,-2.25 25.56,-3.72 13,-2.27 26.44,-4.61 39.4,-4.19 6.68,0.22 13.1,2.13 19.31,3.97 6.7,1.99 13.61,4.04 20.82,3.94 l 0.01,0.5 c -0.21,0.01 -0.4,0.01 -0.59,0.01 z"
   style="fill:#f9f9f9" />
			</g>
			<g
   id="XMLID_14555_"
   style="fill:#f9f9f9">
				<path
   id="XMLID_14818_"
   class="st0"
   d="m 904.84,281.74 -0.03,-0.5 c 8.35,-0.44 16.86,-1.46 25.1,-2.45 11.64,-1.39 23.67,-2.83 35.48,-2.68 8.33,0.11 16.66,1.4 24.7,2.66 6.46,1.01 13.15,2.05 19.81,2.47 l -0.03,0.5 c -6.68,-0.42 -13.38,-1.47 -19.85,-2.47 -8.03,-1.25 -16.33,-2.54 -24.63,-2.65 -11.78,-0.15 -23.79,1.28 -35.41,2.67 -8.25,0.98 -16.78,2 -25.14,2.45 z"
   style="fill:#f9f9f9" />
			</g>
			<g
   id="XMLID_14554_"
   style="fill:#f9f9f9">
				<path
   id="XMLID_14817_"
   class="st0"
   d="m 1009.88,288.74 c -34.14,-0.77 -68.51,-0.77 -105.05,0 l -0.01,-0.5 c 36.55,-0.77 70.92,-0.77 105.07,0 z"
   style="fill:#f9f9f9" />
			</g>
			<g
   id="XMLID_14553_"
   style="fill:#f9f9f9">
				<path
   id="XMLID_14816_"
   class="st0"
   d="m 957.36,295.75 c -17.51,0 -35.02,0 -52.53,0 v -0.5 c 35.02,0.01 70.04,0.01 105.06,0 v 0.5 c -17.51,0 -35.02,0 -52.53,0 z"
   style="fill:#f9f9f9" />
			</g>
			<g
   id="XMLID_14552_"
   style="fill:#f9f9f9">
				<rect
   id="XMLID_14815_"
   x="904.83002"
   y="302.25"
   class="st0"
   width="105.06"
   height="0.5"
   style="fill:#f9f9f9" />
			</g>
		</g>
		<g
   id="XMLID_14534_"
   style="fill:#f9f9f9">
			<g
   id="XMLID_14550_"
   style="fill:#f9f9f9">
				<rect
   id="XMLID_14814_"
   x="1009.64"
   y="197.44"
   class="st0"
   width="0.5"
   height="105.06"
   style="fill:#f9f9f9" />
			</g>
			<g
   id="XMLID_14549_"
   style="fill:#f9f9f9">
				<path
   id="XMLID_14813_"
   class="st0"
   d="m 1002.63,302.5 c -0.01,-35.02 -0.01,-70.04 0,-105.06 h 0.5 c -0.01,35.02 -0.01,70.04 0,105.06 z"
   style="fill:#f9f9f9" />
			</g>
			<g
   id="XMLID_14548_"
   style="fill:#f9f9f9">
				<path
   id="XMLID_14812_"
   class="st0"
   d="m 996.13,302.51 -0.5,-0.02 c 0.28,-8.29 1.16,-16.68 2.02,-24.79 1.05,-9.94 2.13,-20.21 2.1,-30.36 -0.03,-9.05 -1.08,-18.17 -2.09,-26.99 -0.86,-7.48 -1.75,-15.22 -2.02,-22.9 l 0.5,-0.02 c 0.27,7.66 1.16,15.39 2.02,22.86 1.02,8.83 2.07,17.97 2.1,27.05 0.03,10.18 -1.05,20.46 -2.1,30.41 -0.87,8.11 -1.76,16.49 -2.03,24.76 z"
   style="fill:#f9f9f9" />
			</g>
			<g
   id="XMLID_14547_"
   style="fill:#f9f9f9">
				<path
   id="XMLID_14811_"
   class="st0"
   d="m 989.12,302.52 -0.5,-0.04 c 0.69,-8.07 2.29,-16.29 3.84,-24.24 2.13,-10.95 4.34,-22.27 4.19,-33.39 -0.12,-8.99 -2.17,-17.89 -4.16,-26.5 -1.57,-6.79 -3.19,-13.81 -3.87,-20.88 l 0.5,-0.05 c 0.68,7.04 2.29,14.04 3.86,20.82 1.99,8.63 4.06,17.56 4.17,26.61 0.14,11.17 -2.07,22.52 -4.2,33.5 -1.54,7.92 -3.14,16.12 -3.83,24.17 z"
   style="fill:#f9f9f9" />
			</g>
			<g
   id="XMLID_14546_"
   style="fill:#f9f9f9">
				<path
   id="XMLID_14810_"
   class="st0"
   d="m 982.12,302.53 -0.5,-0.07 c 1.13,-7.94 3.5,-16.22 5.79,-24.23 3.43,-11.97 6.97,-24.35 6.6,-36.16 -0.28,-8.8 -3.43,-17.17 -6.47,-25.27 -2.34,-6.22 -4.76,-12.66 -5.92,-19.32 l 0.49,-0.09 c 1.15,6.62 3.56,13.03 5.89,19.23 3.06,8.14 6.23,16.55 6.51,25.43 0.37,11.89 -3.18,24.31 -6.62,36.31 -2.28,8 -4.65,16.27 -5.77,24.17 z"
   style="fill:#f9f9f9" />
			</g>
			<g
   id="XMLID_14545_"
   style="fill:#f9f9f9">
				<path
   id="XMLID_14809_"
   class="st0"
   d="m 975.11,302.55 -0.49,-0.09 c 1.5,-7.79 4.46,-15.89 7.6,-24.45 4.76,-12.98 9.68,-26.41 9,-38.61 -0.48,-8.64 -4.46,-16 -8.67,-23.8 -3.09,-5.73 -6.29,-11.65 -7.93,-18.09 l 0.48,-0.12 c 1.62,6.37 4.81,12.27 7.89,17.98 4.05,7.5 8.24,15.26 8.73,24.01 0.68,12.3 -4.26,25.78 -9.03,38.81 -3.13,8.53 -6.09,16.6 -7.58,24.36 z"
   style="fill:#f9f9f9" />
			</g>
			<g
   id="XMLID_14544_"
   style="fill:#f9f9f9">
				<path
   id="XMLID_14808_"
   class="st0"
   d="m 968.11,302.55 -0.49,-0.11 c 1.75,-7.69 5.3,-16.01 9.05,-24.81 5.9,-13.82 12,-28.12 11.02,-40.45 -0.68,-8.56 -5.4,-15.29 -10.4,-22.42 -3.75,-5.34 -7.62,-10.86 -9.67,-17.25 l 0.48,-0.15 c 2.02,6.31 5.87,11.8 9.6,17.11 5.04,7.18 9.8,13.97 10.49,22.67 0.98,12.45 -5.14,26.8 -11.06,40.69 -3.75,8.78 -7.29,17.08 -9.02,24.72 z"
   style="fill:#f9f9f9" />
			</g>
			<g
   id="XMLID_14543_"
   style="fill:#f9f9f9">
				<path
   id="XMLID_14807_"
   class="st0"
   d="m 961.1,302.56 -0.49,-0.12 c 1.87,-7.76 5.82,-16.32 10.01,-25.38 6.56,-14.2 13.35,-28.89 12.19,-41.23 -0.8,-8.56 -5.93,-14.78 -11.36,-21.36 -4.21,-5.11 -8.57,-10.39 -10.84,-16.94 l 0.47,-0.16 c 2.25,6.46 6.57,11.71 10.76,16.79 5.48,6.65 10.65,12.92 11.47,21.63 1.17,12.48 -5.65,27.23 -12.24,41.49 -4.17,9.03 -8.11,17.57 -9.97,25.28 z"
   style="fill:#f9f9f9" />
			</g>
			<g
   id="XMLID_14542_"
   style="fill:#f9f9f9">
				<path
   id="XMLID_14806_"
   class="st0"
   d="m 954.1,302.56 -0.49,-0.12 c 1.87,-7.76 5.82,-16.32 10.01,-25.38 6.56,-14.2 13.35,-28.89 12.19,-41.23 -0.8,-8.56 -5.93,-14.78 -11.36,-21.36 -4.21,-5.11 -8.57,-10.39 -10.84,-16.94 l 0.47,-0.16 c 2.25,6.46 6.57,11.71 10.76,16.79 5.48,6.65 10.65,12.92 11.47,21.63 1.17,12.48 -5.65,27.23 -12.24,41.49 -4.17,9.03 -8.12,17.57 -9.97,25.28 z"
   style="fill:#f9f9f9" />
			</g>
			<g
   id="XMLID_14541_"
   style="fill:#f9f9f9">
				<path
   id="XMLID_14805_"
   class="st0"
   d="m 947.09,302.55 -0.49,-0.11 c 1.75,-7.69 5.3,-16.01 9.05,-24.81 5.9,-13.82 12,-28.12 11.02,-40.45 -0.68,-8.56 -5.4,-15.29 -10.4,-22.42 -3.75,-5.34 -7.62,-10.86 -9.67,-17.25 l 0.48,-0.15 c 2.02,6.31 5.87,11.8 9.6,17.11 5.04,7.18 9.8,13.97 10.49,22.67 0.98,12.45 -5.14,26.8 -11.06,40.68 -3.74,8.79 -7.28,17.09 -9.02,24.73 z"
   style="fill:#f9f9f9" />
			</g>
			<g
   id="XMLID_14540_"
   style="fill:#f9f9f9">
				<path
   id="XMLID_14804_"
   class="st0"
   d="m 940.09,302.55 -0.49,-0.09 c 1.5,-7.79 4.46,-15.89 7.6,-24.45 4.76,-12.98 9.68,-26.41 9,-38.61 -0.48,-8.64 -4.46,-16 -8.67,-23.8 -3.09,-5.73 -6.29,-11.65 -7.93,-18.09 l 0.48,-0.12 c 1.62,6.38 4.81,12.27 7.89,17.98 4.05,7.5 8.24,15.26 8.73,24.01 0.68,12.3 -4.25,25.78 -9.03,38.81 -3.13,8.53 -6.09,16.6 -7.58,24.36 z"
   style="fill:#f9f9f9" />
			</g>
			<g
   id="XMLID_14539_"
   style="fill:#f9f9f9">
				<path
   id="XMLID_14803_"
   class="st0"
   d="m 933.09,302.53 -0.5,-0.07 c 1.13,-7.94 3.5,-16.22 5.79,-24.23 3.43,-11.97 6.97,-24.34 6.6,-36.16 -0.28,-8.8 -3.43,-17.17 -6.47,-25.27 -2.34,-6.22 -4.76,-12.66 -5.92,-19.32 l 0.49,-0.09 c 1.15,6.62 3.56,13.03 5.89,19.23 3.06,8.14 6.23,16.55 6.5,25.43 0.37,11.89 -3.18,24.31 -6.62,36.31 -2.27,8 -4.64,16.27 -5.76,24.17 z"
   style="fill:#f9f9f9" />
			</g>
			<g
   id="XMLID_14538_"
   style="fill:#f9f9f9">
				<path
   id="XMLID_14802_"
   class="st0"
   d="m 926.09,302.52 -0.5,-0.04 c 0.69,-8.07 2.29,-16.29 3.84,-24.24 2.13,-10.95 4.34,-22.27 4.19,-33.39 -0.12,-8.99 -2.17,-17.89 -4.16,-26.5 -1.57,-6.79 -3.19,-13.81 -3.87,-20.88 l 0.5,-0.05 c 0.68,7.04 2.29,14.04 3.86,20.82 1.99,8.63 4.06,17.56 4.17,26.61 0.14,11.17 -2.07,22.52 -4.2,33.5 -1.55,7.92 -3.14,16.12 -3.83,24.17 z"
   style="fill:#f9f9f9" />
			</g>
			<g
   id="XMLID_14537_"
   style="fill:#f9f9f9">
				<path
   id="XMLID_14801_"
   class="st0"
   d="m 919.08,302.51 -0.5,-0.02 c 0.28,-8.29 1.16,-16.68 2.02,-24.79 1.05,-9.94 2.13,-20.21 2.1,-30.35 -0.03,-9.05 -1.08,-18.17 -2.09,-26.99 -0.86,-7.48 -1.75,-15.22 -2.02,-22.9 l 0.5,-0.02 c 0.27,7.66 1.16,15.39 2.02,22.86 1.02,8.83 2.07,17.97 2.1,27.05 0.03,10.17 -1.05,20.46 -2.1,30.41 -0.87,8.1 -1.75,16.48 -2.03,24.75 z"
   style="fill:#f9f9f9" />
			</g>
			<g
   id="XMLID_14536_"
   style="fill:#f9f9f9">
				<path
   id="XMLID_14800_"
   class="st0"
   d="m 911.58,302.5 c -0.01,-35.02 -0.01,-70.04 0,-105.06 h 0.5 c -0.01,35.02 -0.01,70.04 0,105.06 z"
   style="fill:#f9f9f9" />
			</g>
			<g
   id="XMLID_14535_"
   style="fill:#f9f9f9">
				<rect
   id="XMLID_14799_"
   x="904.58002"
   y="197.44"
   class="st0"
   width="0.5"
   height="105.06"
   style="fill:#f9f9f9" />
			</g>
		</g>
	</g>
</g>
</svg>
