<?xml version="1.0" encoding="UTF-8" standalone="no"?>
<!-- Generator: Adobe Illustrator 23.0.1, SVG Export Plug-In . SVG Version: 6.00 Build 0)  -->

<svg
   version="1.1"
   id="Layer_1"
   x="0px"
   y="0px"
   viewBox="0 0 62.248877 61.951514"
   xml:space="preserve"
   sodipodi:docname="title_dots.svg"
   width="62.248878"
   height="61.951511"
   inkscape:version="1.1 (c4e8f9e, 2021-05-24)"
   xmlns:inkscape="http://www.inkscape.org/namespaces/inkscape"
   xmlns:sodipodi="http://sodipodi.sourceforge.net/DTD/sodipodi-0.dtd"
   xmlns="http://www.w3.org/2000/svg"
   xmlns:svg="http://www.w3.org/2000/svg"><defs
   id="defs5788" /><sodipodi:namedview
   id="namedview5786"
   pagecolor="#505050"
   bordercolor="#eeeeee"
   borderopacity="1"
   inkscape:pageshadow="0"
   inkscape:pageopacity="0"
   inkscape:pagecheckerboard="0"
   showgrid="false"
   inkscape:zoom="1.2131599"
   inkscape:cx="-335.89966"
   inkscape:cy="-55.639821"
   inkscape:window-width="1296"
   inkscape:window-height="1081"
   inkscape:window-x="0"
   inkscape:window-y="25"
   inkscape:window-maximized="0"
   inkscape:current-layer="Layer_1" />
<style
   type="text/css"
   id="style5717">
	.st0{fill:#231F20;}
</style>
<g
   id="XMLID_7765_"
   style="fill:#f5ff4f;fill-opacity:1"
   transform="translate(-782.00112,-363.22849)">
	<path
   id="XMLID_7929_"
   class="st0"
   d="m 813.71,424.25 c -0.03,-0.54 0.39,-1.01 0.92,-1.03 h 0.01 c 0.54,-0.03 1,0.39 1.03,0.93 v 0 c 0.03,0.54 -0.39,1 -0.93,1.03 v 0 c -0.02,0 -0.04,0 -0.05,0 v 0 c -0.53,-0.01 -0.96,-0.41 -0.98,-0.93 z"
   style="fill:#f5ff4f;fill-opacity:1" />
	<path
   id="XMLID_7928_"
   class="st0"
   d="m 808.04,424.82 c -0.54,-0.09 -0.89,-0.59 -0.81,-1.12 v 0 c 0.08,-0.54 0.59,-0.9 1.12,-0.82 v 0 c 0.54,0.09 0.89,0.59 0.81,1.13 v 0 c -0.08,0.48 -0.5,0.82 -0.97,0.82 v 0 c -0.04,0 -0.09,0 -0.15,-0.01 z"
   style="fill:#f5ff4f;fill-opacity:1" />
	<path
   id="XMLID_7927_"
   class="st0"
   d="m 820.15,423.4 c -0.14,-0.52 0.16,-1.06 0.68,-1.2 v 0 c 0.52,-0.15 1.06,0.16 1.21,0.68 v 0 c 0.14,0.52 -0.16,1.06 -0.68,1.21 v 0 c -0.09,0.02 -0.18,0.03 -0.27,0.03 v 0 c -0.43,0 -0.83,-0.29 -0.94,-0.72 z"
   style="fill:#f5ff4f;fill-opacity:1" />
	<path
   id="XMLID_7926_"
   class="st0"
   d="m 801.58,423.04 c -0.5,-0.2 -0.74,-0.77 -0.55,-1.27 v 0 c 0.2,-0.5 0.77,-0.75 1.27,-0.55 v 0 c 0.5,0.2 0.75,0.76 0.55,1.27 v 0 c -0.15,0.38 -0.52,0.61 -0.91,0.61 v 0 c -0.12,0 -0.24,-0.02 -0.36,-0.06 z"
   style="fill:#f5ff4f;fill-opacity:1" />
	<path
   id="XMLID_7925_"
   class="st0"
   d="m 826.25,421.2 c -0.25,-0.48 -0.07,-1.07 0.41,-1.33 v 0 c 0.48,-0.25 1.07,-0.07 1.33,0.4 v 0 c 0.25,0.48 0.07,1.07 -0.41,1.33 v 0 c -0.14,0.07 -0.31,0.11 -0.46,0.11 v 0 c -0.35,0 -0.69,-0.19 -0.87,-0.51 z"
   style="fill:#f5ff4f;fill-opacity:1" />
	<path
   id="XMLID_7924_"
   class="st0"
   d="m 795.55,420.06 v 0 0 c -0.54,-0.36 -0.68,-1.1 -0.31,-1.63 v 0 c 0.36,-0.54 1.1,-0.68 1.63,-0.31 v 0 c 0.54,0.36 0.68,1.09 0.31,1.63 v 0 c -0.23,0.34 -0.6,0.52 -0.97,0.52 v 0 c -0.23,-0.01 -0.46,-0.07 -0.66,-0.21 z"
   style="fill:#f5ff4f;fill-opacity:1" />
	<path
   id="XMLID_7923_"
   class="st0"
   d="m 831.74,417.72 c -0.35,-0.41 -0.3,-1.03 0.11,-1.38 v 0 c 0.41,-0.35 1.03,-0.3 1.38,0.11 v 0 c 0.35,0.41 0.3,1.03 -0.11,1.38 v 0 c -0.19,0.16 -0.41,0.23 -0.64,0.23 v 0 c -0.27,0 -0.55,-0.12 -0.74,-0.34 z"
   style="fill:#f5ff4f;fill-opacity:1" />
	<path
   id="XMLID_7922_"
   class="st0"
   d="m 790.54,415.56 c -0.37,-0.39 -0.36,-1.01 0.04,-1.38 v 0 c 0.39,-0.37 1.01,-0.35 1.38,0.04 v 0 c 0.37,0.39 0.35,1.01 -0.04,1.38 v 0 c -0.19,0.18 -0.43,0.27 -0.67,0.27 v 0 c -0.26,0 -0.51,-0.1 -0.71,-0.31 z"
   style="fill:#f5ff4f;fill-opacity:1" />
	<path
   id="XMLID_7921_"
   class="st0"
   d="m 836.36,413.15 c -0.43,-0.33 -0.52,-0.94 -0.19,-1.37 v 0 c 0.33,-0.43 0.95,-0.52 1.38,-0.19 v 0 c 0.42,0.33 0.51,0.94 0.18,1.37 v 0 0 0 c -0.19,0.25 -0.48,0.39 -0.78,0.39 v 0 c -0.21,0 -0.42,-0.06 -0.59,-0.2 z"
   style="fill:#f5ff4f;fill-opacity:1" />
	<path
   id="XMLID_7920_"
   class="st0"
   d="m 786.47,410.24 c -0.28,-0.46 -0.13,-1.06 0.33,-1.35 v 0 c 0.46,-0.28 1.06,-0.13 1.35,0.33 v 0 c 0.28,0.46 0.13,1.06 -0.33,1.35 v 0 c -0.16,0.09 -0.33,0.14 -0.5,0.14 v 0 c -0.34,0 -0.66,-0.17 -0.85,-0.47 z"
   style="fill:#f5ff4f;fill-opacity:1" />
	<path
   id="XMLID_7919_"
   class="st0"
   d="m 839.89,407.7 c -0.5,-0.23 -0.71,-0.81 -0.48,-1.3 v 0 c 0.22,-0.49 0.81,-0.71 1.3,-0.48 v 0 c 0.49,0.23 0.71,0.81 0.48,1.3 v 0 c -0.17,0.36 -0.52,0.57 -0.89,0.57 v 0 c -0.14,0 -0.28,-0.03 -0.41,-0.09 z"
   style="fill:#f5ff4f;fill-opacity:1" />
	<path
   id="XMLID_7918_"
   class="st0"
   d="m 783.65,404.16 c -0.17,-0.51 0.1,-1.07 0.61,-1.24 v 0 c 0.52,-0.18 1.07,0.1 1.24,0.61 v 0 c 0.18,0.51 -0.1,1.07 -0.61,1.24 v 0 c -0.1,0.03 -0.21,0.05 -0.31,0.05 v 0 c -0.41,0 -0.8,-0.25 -0.93,-0.66 z"
   style="fill:#f5ff4f;fill-opacity:1" />
	<path
   id="XMLID_7917_"
   class="st0"
   d="m 842.16,401.61 c -0.53,-0.12 -0.86,-0.64 -0.75,-1.16 v 0 c 0.12,-0.53 0.64,-0.87 1.17,-0.75 v 0 c 0.53,0.12 0.86,0.64 0.74,1.17 v 0 c -0.1,0.46 -0.5,0.77 -0.95,0.77 v 0 c -0.07,0 -0.14,-0.01 -0.21,-0.03 z"
   style="fill:#f5ff4f;fill-opacity:1" />
	<path
   id="XMLID_7916_"
   class="st0"
   d="m 782.01,397.63 c -0.08,-0.64 0.39,-1.23 1.03,-1.3 v 0 c 0.65,-0.06 1.23,0.4 1.3,1.04 v 0 c 0.07,0.65 -0.4,1.23 -1.04,1.3 v 0 c -0.04,0 -0.09,0.01 -0.13,0.01 v 0 c -0.59,0 -1.1,-0.44 -1.16,-1.05 z"
   style="fill:#f5ff4f;fill-opacity:1" />
	<path
   id="XMLID_7915_"
   class="st0"
   d="m 841.89,394.22 c 0,-0.03 0,-0.06 0,-0.08 v 0 c 0,-0.02 0,-0.05 0,-0.07 v 0 c 0,-0.65 0.53,-1.18 1.18,-1.18 v 0 c 0.64,-0.01 1.18,0.52 1.18,1.17 v 0 c 0,0.03 0,0.06 0,0.08 v 0 c 0,0.02 0,0.05 0,0.08 v 0 0 0 c 0,0.64 -0.53,1.18 -1.18,1.18 v 0 c -0.66,-0.01 -1.18,-0.54 -1.18,-1.18 z"
   style="fill:#f5ff4f;fill-opacity:1" />
	<path
   id="XMLID_7914_"
   class="st0"
   d="m 783.06,391.99 c -0.54,-0.06 -0.93,-0.54 -0.87,-1.08 v 0 c 0.05,-0.54 0.54,-0.93 1.07,-0.88 v 0 c 0.54,0.06 0.93,0.54 0.88,1.08 v 0 c -0.05,0.51 -0.48,0.88 -0.97,0.88 v 0 c -0.04,0.01 -0.08,0 -0.11,0 z"
   style="fill:#f5ff4f;fill-opacity:1" />
	<path
   id="XMLID_7913_"
   class="st0"
   d="m 841.38,387.84 c -0.12,-0.53 0.21,-1.05 0.74,-1.17 v 0 c 0.53,-0.12 1.05,0.21 1.17,0.74 v 0 c 0.12,0.53 -0.22,1.05 -0.74,1.18 v 0 c -0.07,0.01 -0.14,0.02 -0.21,0.02 v 0 c -0.45,0 -0.85,-0.31 -0.96,-0.77 z"
   style="fill:#f5ff4f;fill-opacity:1" />
	<path
   id="XMLID_7912_"
   class="st0"
   d="m 784.3,385.36 c -0.39,-0.13 -0.59,-0.54 -0.47,-0.93 v 0 c 0.13,-0.39 0.54,-0.59 0.93,-0.47 v 0 c 0.39,0.13 0.59,0.54 0.47,0.93 v 0 c -0.1,0.31 -0.39,0.5 -0.7,0.5 v 0 c -0.07,0.01 -0.15,0 -0.23,-0.03 z"
   style="fill:#f5ff4f;fill-opacity:1" />
	<path
   id="XMLID_7911_"
   class="st0"
   d="m 839.36,381.9 v 0 c -0.23,-0.49 -0.02,-1.07 0.47,-1.31 v 0 c 0.49,-0.23 1.08,-0.01 1.31,0.48 v 0 0 0 c 0.23,0.49 0.02,1.07 -0.48,1.3 v 0 c -0.13,0.07 -0.27,0.09 -0.41,0.09 v 0 c -0.37,0 -0.73,-0.21 -0.89,-0.56 z"
   style="fill:#f5ff4f;fill-opacity:1" />
	<path
   id="XMLID_7910_"
   class="st0"
   d="m 786.75,379.61 c -0.46,-0.28 -0.61,-0.88 -0.33,-1.35 v 0 c 0.27,-0.46 0.88,-0.61 1.35,-0.33 v 0 c 0.46,0.27 0.61,0.88 0.33,1.34 v 0 c -0.18,0.31 -0.51,0.48 -0.84,0.48 v 0 c -0.18,0 -0.36,-0.04 -0.51,-0.14 z"
   style="fill:#f5ff4f;fill-opacity:1" />
	<path
   id="XMLID_7909_"
   class="st0"
   d="m 835.95,376.65 v 0 c -0.4,-0.51 -0.3,-1.25 0.21,-1.65 v 0 c 0.52,-0.39 1.25,-0.3 1.65,0.22 v 0 0 0 c 0.39,0.51 0.3,1.25 -0.22,1.65 v 0 c -0.21,0.16 -0.47,0.24 -0.71,0.24 v 0 c -0.35,0 -0.71,-0.15 -0.93,-0.46 z"
   style="fill:#f5ff4f;fill-opacity:1" />
	<path
   id="XMLID_7908_"
   class="st0"
   d="m 790.37,374.45 c -0.47,-0.45 -0.49,-1.19 -0.05,-1.66 v 0 c 0.45,-0.47 1.18,-0.49 1.66,-0.05 v 0 c 0.47,0.45 0.49,1.18 0.05,1.66 v 0 c -0.24,0.24 -0.55,0.37 -0.85,0.37 v 0 c -0.29,0.01 -0.58,-0.1 -0.81,-0.32 z"
   style="fill:#f5ff4f;fill-opacity:1" />
	<path
   id="XMLID_7907_"
   class="st0"
   d="m 831.76,371.99 c -0.42,-0.35 -0.46,-0.97 -0.12,-1.38 v 0 c 0.35,-0.41 0.97,-0.46 1.38,-0.12 v 0 c 0.42,0.35 0.47,0.97 0.12,1.38 v 0 c -0.19,0.23 -0.47,0.35 -0.74,0.35 v 0 c -0.23,0 -0.45,-0.08 -0.64,-0.23 z"
   style="fill:#f5ff4f;fill-opacity:1" />
	<path
   id="XMLID_7906_"
   class="st0"
   d="m 795.3,369.94 c -0.31,-0.45 -0.2,-1.06 0.25,-1.36 v 0 c 0.44,-0.31 1.06,-0.19 1.36,0.26 v 0 c 0.31,0.44 0.19,1.05 -0.25,1.36 v 0 c -0.17,0.12 -0.36,0.17 -0.55,0.17 v 0 c -0.31,-0.01 -0.62,-0.16 -0.81,-0.43 z"
   style="fill:#f5ff4f;fill-opacity:1" />
	<path
   id="XMLID_7905_"
   class="st0"
   d="m 826.55,368.48 c -0.48,-0.25 -0.66,-0.85 -0.41,-1.33 v 0 c 0.26,-0.48 0.85,-0.66 1.33,-0.4 v 0 c 0.48,0.25 0.67,0.84 0.41,1.32 v 0 c -0.18,0.33 -0.52,0.52 -0.87,0.52 v 0 c -0.15,0 -0.31,-0.03 -0.46,-0.11 z"
   style="fill:#f5ff4f;fill-opacity:1" />
	<path
   id="XMLID_7904_"
   class="st0"
   d="m 800.92,366.69 c -0.2,-0.5 0.05,-1.08 0.55,-1.27 v 0 c 0.5,-0.2 1.07,0.04 1.27,0.54 v 0 c 0.2,0.5 -0.05,1.07 -0.54,1.27 h -0.01 c -0.12,0.05 -0.24,0.07 -0.36,0.07 v 0 c -0.39,0 -0.75,-0.23 -0.91,-0.61 z"
   style="fill:#f5ff4f;fill-opacity:1" />
	<path
   id="XMLID_7903_"
   class="st0"
   d="m 820.66,366.36 v 0 c -0.63,-0.17 -1,-0.82 -0.82,-1.44 v 0 c 0.17,-0.63 0.82,-1 1.44,-0.82 v 0 c 0,0 0,0 0,-0.01 v 0 c 0.63,0.17 0.99,0.82 0.82,1.45 v 0 c -0.14,0.52 -0.61,0.86 -1.13,0.86 v 0 c -0.1,0 -0.21,-0.01 -0.31,-0.04 z"
   style="fill:#f5ff4f;fill-opacity:1" />
	<path
   id="XMLID_7902_"
   class="st0"
   d="m 807.12,364.73 c -0.09,-0.54 0.27,-1.04 0.8,-1.12 v 0 c 0.54,-0.09 1.04,0.27 1.13,0.8 v 0 c 0.08,0.54 -0.27,1.04 -0.81,1.12 v 0 c -0.05,0.01 -0.1,0.01 -0.16,0.01 v 0 c -0.47,0.01 -0.88,-0.33 -0.96,-0.81 z"
   style="fill:#f5ff4f;fill-opacity:1" />
	<path
   id="XMLID_7901_"
   class="st0"
   d="m 814.52,365.18 c -0.54,-0.03 -0.96,-0.48 -0.93,-1.02 v 0 c 0.03,-0.54 0.49,-0.96 1.03,-0.93 v 0 c 0.54,0.03 0.95,0.48 0.93,1.03 v 0 c -0.03,0.52 -0.46,0.93 -0.98,0.93 v 0 c -0.02,-0.01 -0.04,-0.01 -0.05,-0.01 z"
   style="fill:#f5ff4f;fill-opacity:1" />
	<path
   id="XMLID_7898_"
   class="st0"
   d="m 813.74,416.47 c -0.05,-0.54 0.36,-1.01 0.9,-1.05 v 0 c 0.54,-0.05 1.01,0.36 1.05,0.9 v 0 c 0.04,0.54 -0.37,1.01 -0.91,1.05 v 0 c -0.02,0 -0.05,0 -0.07,0 v 0 c -0.51,0.01 -0.94,-0.39 -0.97,-0.9 z"
   style="fill:#f5ff4f;fill-opacity:1" />
	<path
   id="XMLID_7897_"
   class="st0"
   d="m 807.88,416.87 c -0.52,-0.12 -0.86,-0.64 -0.74,-1.17 v 0 c 0.12,-0.53 0.65,-0.86 1.18,-0.74 v 0 c 0.52,0.12 0.86,0.64 0.74,1.17 v 0 c -0.1,0.46 -0.51,0.76 -0.96,0.76 v 0 c -0.07,0 -0.15,0 -0.22,-0.02 z"
   style="fill:#f5ff4f;fill-opacity:1" />
	<path
   id="XMLID_7896_"
   class="st0"
   d="m 820.09,415.35 c -0.24,-0.6 0.05,-1.28 0.66,-1.52 v 0 c 0.6,-0.24 1.28,0.05 1.53,0.66 v 0 c 0.23,0.6 -0.06,1.28 -0.67,1.53 v 0 c -0.14,0.05 -0.28,0.08 -0.43,0.08 v 0 c -0.47,0 -0.91,-0.29 -1.09,-0.75 z"
   style="fill:#f5ff4f;fill-opacity:1" />
	<path
   id="XMLID_7895_"
   class="st0"
   d="m 801.44,414.35 c -0.47,-0.27 -0.63,-0.87 -0.36,-1.34 v 0 c 0.27,-0.46 0.87,-0.63 1.34,-0.36 v 0 c 0.46,0.27 0.63,0.87 0.36,1.34 v 0 c -0.18,0.31 -0.51,0.49 -0.85,0.49 v 0 c -0.17,0 -0.34,-0.04 -0.49,-0.13 z"
   style="fill:#f5ff4f;fill-opacity:1" />
	<path
   id="XMLID_7894_"
   class="st0"
   d="m 826.35,412.06 c -0.26,-0.32 -0.2,-0.78 0.11,-1.03 v 0 c 0.32,-0.25 0.78,-0.2 1.03,0.12 v 0 c 0.25,0.31 0.2,0.78 -0.11,1.03 v 0 c -0.14,0.11 -0.3,0.16 -0.46,0.16 v 0 c -0.22,-0.01 -0.43,-0.1 -0.57,-0.28 z"
   style="fill:#f5ff4f;fill-opacity:1" />
	<path
   id="XMLID_7893_"
   class="st0"
   d="m 796.02,410.03 c -0.37,-0.4 -0.35,-1.02 0.05,-1.38 v 0 c 0.4,-0.37 1.01,-0.35 1.38,0.05 v 0 c 0.37,0.39 0.35,1.01 -0.05,1.38 v 0 c -0.18,0.17 -0.42,0.26 -0.67,0.26 v 0 c -0.26,0.01 -0.52,-0.1 -0.71,-0.31 z"
   style="fill:#f5ff4f;fill-opacity:1" />
	<path
   id="XMLID_7892_"
   class="st0"
   d="m 830.88,407.54 c -0.45,-0.3 -0.56,-0.91 -0.26,-1.36 h 0.01 c 0.3,-0.45 0.91,-0.56 1.36,-0.25 v 0 c 0.44,0.3 0.56,0.91 0.25,1.36 v 0 c -0.19,0.28 -0.5,0.43 -0.81,0.43 v 0 c -0.19,0 -0.38,-0.06 -0.55,-0.18 z"
   style="fill:#f5ff4f;fill-opacity:1" />
	<path
   id="XMLID_7891_"
   class="st0"
   d="m 792.1,404.32 c -0.23,-0.48 -0.03,-1.07 0.46,-1.31 v 0 c 0.48,-0.24 1.07,-0.03 1.31,0.46 v 0 c 0.24,0.48 0.03,1.07 -0.45,1.31 v 0 c -0.14,0.07 -0.29,0.1 -0.43,0.1 v 0 c -0.36,0 -0.72,-0.21 -0.89,-0.56 z"
   style="fill:#f5ff4f;fill-opacity:1" />
	<path
   id="XMLID_7890_"
   class="st0"
   d="m 834.02,401.69 c -0.52,-0.16 -0.8,-0.71 -0.65,-1.22 v 0 c 0.16,-0.52 0.71,-0.81 1.23,-0.65 v 0 c 0.52,0.16 0.8,0.71 0.65,1.23 v 0 c -0.13,0.42 -0.52,0.69 -0.94,0.69 v 0 c -0.1,0 -0.19,-0.01 -0.29,-0.05 z"
   style="fill:#f5ff4f;fill-opacity:1" />
	<path
   id="XMLID_7889_"
   class="st0"
   d="m 790.05,397.71 c -0.08,-0.54 0.29,-1.04 0.82,-1.12 v 0 c 0.54,-0.08 1.03,0.29 1.12,0.82 v 0 c 0.08,0.54 -0.29,1.03 -0.82,1.12 v 0 c -0.05,0.01 -0.1,0.01 -0.15,0.01 v 0 c -0.48,0 -0.9,-0.35 -0.97,-0.83 z"
   style="fill:#f5ff4f;fill-opacity:1" />
	<path
   id="XMLID_7888_"
   class="st0"
   d="m 834.31,394.2 c 0,-0.01 0,-0.03 0,-0.03 v 0 c 0,-0.02 0,-0.04 0,-0.06 v 0 c -0.01,-0.54 0.43,-0.99 0.97,-0.99 v 0 c 0.54,0 0.98,0.44 0.99,0.98 v 0 c 0,0.01 0,0.03 -0.01,0.05 v 0 c 0,0.01 0.01,0.03 0.01,0.05 v 0 0 0 c 0,0.54 -0.44,0.98 -0.98,0.98 v 0 c -0.54,0 -0.98,-0.44 -0.98,-0.98 z"
   style="fill:#f5ff4f;fill-opacity:1" />
	<path
   id="XMLID_7887_"
   class="st0"
   d="m 790.86,391.9 c -0.54,-0.08 -0.9,-0.57 -0.82,-1.11 v 0 0 0 c 0.08,-0.54 0.57,-0.91 1.11,-0.82 v 0 c 0.54,0.08 0.91,0.57 0.83,1.11 v 0 c -0.07,0.48 -0.49,0.84 -0.97,0.84 v 0 c -0.05,-0.01 -0.1,-0.01 -0.15,-0.02 z"
   style="fill:#f5ff4f;fill-opacity:1" />
	<path
   id="XMLID_7886_"
   class="st0"
   d="m 833.35,387.84 c -0.16,-0.52 0.12,-1.06 0.64,-1.22 v 0 c 0.52,-0.16 1.07,0.12 1.23,0.64 v 0 c 0.16,0.52 -0.12,1.06 -0.64,1.23 v 0 c -0.1,0.03 -0.2,0.05 -0.29,0.05 v 0 c -0.43,0 -0.81,-0.27 -0.94,-0.7 z"
   style="fill:#f5ff4f;fill-opacity:1" />
	<path
   id="XMLID_7885_"
   class="st0"
   d="m 792.52,385.47 c -0.48,-0.24 -0.69,-0.82 -0.46,-1.31 v 0 c 0.23,-0.49 0.82,-0.69 1.31,-0.46 v 0 c 0.49,0.23 0.69,0.82 0.46,1.31 v 0 c -0.17,0.35 -0.52,0.56 -0.88,0.56 v 0 c -0.15,0 -0.29,-0.03 -0.43,-0.1 z"
   style="fill:#f5ff4f;fill-opacity:1" />
	<path
   id="XMLID_7884_"
   class="st0"
   d="m 830.57,382.15 c -0.31,-0.45 -0.2,-1.06 0.25,-1.36 v 0 c 0.45,-0.31 1.06,-0.2 1.36,0.25 v 0 0 0 c 0.31,0.44 0.2,1.05 -0.25,1.36 v 0 c -0.17,0.12 -0.37,0.18 -0.55,0.18 v 0 c -0.31,-0.01 -0.62,-0.16 -0.81,-0.43 z"
   style="fill:#f5ff4f;fill-opacity:1" />
	<path
   id="XMLID_7883_"
   class="st0"
   d="m 795.88,379.97 c -0.48,-0.44 -0.51,-1.18 -0.06,-1.66 v 0 c 0.44,-0.48 1.18,-0.51 1.66,-0.07 v 0 c 0.47,0.45 0.5,1.19 0.06,1.66 v 0 c -0.23,0.25 -0.55,0.38 -0.86,0.38 v 0 c -0.29,0 -0.58,-0.11 -0.8,-0.31 z"
   style="fill:#f5ff4f;fill-opacity:1" />
	<path
   id="XMLID_7882_"
   class="st0"
   d="m 826.12,377.66 c -0.51,-0.4 -0.6,-1.14 -0.2,-1.65 v 0 c 0.41,-0.51 1.14,-0.6 1.65,-0.2 v 0 c 0.51,0.41 0.6,1.14 0.19,1.65 v 0 c -0.23,0.29 -0.57,0.45 -0.92,0.45 v 0 c -0.25,0.01 -0.51,-0.07 -0.72,-0.25 z"
   style="fill:#f5ff4f;fill-opacity:1" />
	<path
   id="XMLID_7881_"
   class="st0"
   d="m 801,375.44 c -0.27,-0.46 -0.12,-1.06 0.35,-1.34 v 0 0 0 c 0.47,-0.27 1.06,-0.11 1.34,0.36 v 0 c 0.27,0.46 0.12,1.06 -0.35,1.34 v 0 c -0.16,0.09 -0.33,0.13 -0.49,0.13 v 0 c -0.34,0 -0.67,-0.18 -0.85,-0.49 z"
   style="fill:#f5ff4f;fill-opacity:1" />
	<path
   id="XMLID_7880_"
   class="st0"
   d="m 820.74,374.36 v 0 c -0.5,-0.2 -0.76,-0.76 -0.56,-1.27 v 0 c 0.2,-0.5 0.76,-0.75 1.27,-0.56 v 0 0 0 c 0.51,0.2 0.76,0.76 0.56,1.27 v 0 c -0.15,0.39 -0.52,0.63 -0.91,0.63 v 0 c -0.12,0 -0.25,-0.03 -0.36,-0.07 z"
   style="fill:#f5ff4f;fill-opacity:1" />
	<path
   id="XMLID_7879_"
   class="st0"
   d="m 807.06,372.73 c -0.12,-0.53 0.2,-1.06 0.73,-1.18 v 0 c 0.53,-0.12 1.05,0.21 1.18,0.73 v 0 c 0.12,0.53 -0.21,1.06 -0.74,1.18 v 0 c -0.07,0.02 -0.14,0.03 -0.22,0.03 v 0 c -0.44,0 -0.85,-0.31 -0.95,-0.76 z"
   style="fill:#f5ff4f;fill-opacity:1" />
	<path
   id="XMLID_7878_"
   class="st0"
   d="m 814.57,372.73 v 0 c -0.4,-0.02 -0.71,-0.38 -0.68,-0.78 v 0 c 0.02,-0.41 0.38,-0.71 0.78,-0.68 v 0 0 0 c 0.4,0.03 0.71,0.38 0.68,0.78 v 0 c -0.03,0.39 -0.35,0.69 -0.73,0.69 v 0 c -0.01,-0.01 -0.03,-0.01 -0.05,-0.01 z"
   style="fill:#f5ff4f;fill-opacity:1" />
	<path
   id="XMLID_7875_"
   class="st0"
   d="m 813.62,408.72 c -0.08,-0.64 0.38,-1.23 1.03,-1.31 v 0 c 0.64,-0.08 1.22,0.38 1.3,1.03 v 0 c 0.08,0.64 -0.38,1.23 -1.03,1.31 v 0 c 0,0 0,0 0.01,0 v 0 c -0.05,0.01 -0.1,0.01 -0.15,0.01 v 0 c -0.58,-0.01 -1.09,-0.44 -1.16,-1.04 z"
   style="fill:#f5ff4f;fill-opacity:1" />
	<path
   id="XMLID_7874_"
   class="st0"
   d="m 807.56,408.67 v 0 0 c -0.51,-0.19 -0.76,-0.76 -0.57,-1.26 v 0 c 0.19,-0.51 0.75,-0.76 1.26,-0.57 v 0.01 c 0.5,0.19 0.76,0.75 0.57,1.26 v 0 c -0.15,0.39 -0.52,0.63 -0.91,0.63 v 0 c -0.12,0 -0.24,-0.02 -0.35,-0.07 z"
   style="fill:#f5ff4f;fill-opacity:1" />
	<path
   id="XMLID_7873_"
   class="st0"
   d="m 820.46,406.68 c -0.31,-0.45 -0.2,-1.06 0.25,-1.36 v 0 c 0.44,-0.31 1.05,-0.2 1.36,0.25 v 0 c 0.31,0.44 0.2,1.05 -0.25,1.36 v 0 c -0.18,0.12 -0.37,0.17 -0.56,0.17 v 0 c -0.3,0 -0.61,-0.15 -0.8,-0.42 z"
   style="fill:#f5ff4f;fill-opacity:1" />
	<path
   id="XMLID_7872_"
   class="st0"
   d="m 801.47,404.47 v 0 0 c -0.36,-0.4 -0.33,-1.03 0.08,-1.38 v 0 c 0.4,-0.36 1.02,-0.32 1.38,0.08 v 0 c 0.36,0.4 0.33,1.03 -0.08,1.38 v 0 c -0.19,0.16 -0.42,0.25 -0.65,0.25 v 0 c -0.27,0 -0.54,-0.11 -0.73,-0.33 z"
   style="fill:#f5ff4f;fill-opacity:1" />
	<path
   id="XMLID_7871_"
   class="st0"
   d="m 825.4,401.79 c -0.48,-0.25 -0.67,-0.84 -0.41,-1.32 v 0 c 0.25,-0.48 0.84,-0.66 1.32,-0.41 v 0 c 0.48,0.25 0.67,0.84 0.42,1.33 v 0 c 0,0 0,0 -0.01,-0.01 v 0 c -0.18,0.34 -0.51,0.53 -0.86,0.53 v 0 c -0.16,0 -0.31,-0.04 -0.46,-0.12 z"
   style="fill:#f5ff4f;fill-opacity:1" />
	<path
   id="XMLID_7870_"
   class="st0"
   d="m 797.83,397.97 c -0.16,-0.63 0.23,-1.27 0.85,-1.42 v 0 c 0.64,-0.16 1.27,0.23 1.43,0.85 v 0 c 0.16,0.63 -0.23,1.27 -0.86,1.43 v 0 c -0.09,0.02 -0.19,0.03 -0.28,0.03 v 0 c -0.53,0.01 -1.01,-0.35 -1.14,-0.89 z"
   style="fill:#f5ff4f;fill-opacity:1" />
	<path
   id="XMLID_7869_"
   class="st0"
   d="m 826.34,394.21 c 0,-0.01 0,-0.01 0,0 v 0 c 0,-0.03 0,-0.05 0,-0.07 v 0 c 0,-0.65 0.53,-1.18 1.18,-1.18 v 0 c 0.64,0 1.18,0.52 1.18,1.17 v 0 c 0,0.02 0,0.02 0,0.04 v 0 c 0,0.02 0,0.02 0,0.04 v 0 0 0 c 0,0.64 -0.53,1.18 -1.18,1.18 v 0 c -0.66,0 -1.18,-0.54 -1.18,-1.18 z"
   style="fill:#f5ff4f;fill-opacity:1" />
	<polygon
   id="XMLID_7868_"
   class="st0"
   points="828.49,394.14 "
   style="fill:#f5ff4f;fill-opacity:1" />
	<path
   id="XMLID_7867_"
   class="st0"
   d="m 798.73,391.72 c -0.53,-0.13 -0.85,-0.66 -0.72,-1.18 v 0 c 0,0 0,0 -0.01,0 v 0 c 0.13,-0.53 0.66,-0.85 1.19,-0.73 v 0 c 0.52,0.13 0.85,0.66 0.72,1.18 v 0 c -0.11,0.45 -0.51,0.75 -0.95,0.75 v 0 c -0.08,0 -0.16,0 -0.23,-0.02 z"
   style="fill:#f5ff4f;fill-opacity:1" />
	<path
   id="XMLID_7866_"
   class="st0"
   d="m 824.97,387.88 c -0.25,-0.48 -0.07,-1.07 0.41,-1.33 v 0 c 0.48,-0.26 1.07,-0.07 1.33,0.4 v 0 0 0 c 0.25,0.48 0.07,1.07 -0.4,1.33 v 0 c -0.14,0.08 -0.3,0.12 -0.46,0.12 v 0 c -0.37,0 -0.71,-0.18 -0.88,-0.52 z"
   style="fill:#f5ff4f;fill-opacity:1" />
	<path
   id="XMLID_7865_"
   class="st0"
   d="m 801.51,385.36 c -0.4,-0.36 -0.44,-0.98 -0.08,-1.38 v 0 c 0,0 0,0 0,-0.01 v 0 c 0.36,-0.4 0.98,-0.44 1.38,-0.08 v 0 c 0.4,0.36 0.44,0.98 0.08,1.38 v 0 c -0.2,0.22 -0.46,0.33 -0.73,0.33 v 0 c -0.23,0 -0.46,-0.08 -0.65,-0.24 z"
   style="fill:#f5ff4f;fill-opacity:1" />
	<path
   id="XMLID_7864_"
   class="st0"
   d="m 820.66,383.06 v 0 c -0.44,-0.31 -0.56,-0.92 -0.25,-1.36 v 0 c 0.31,-0.44 0.92,-0.56 1.36,-0.25 v 0 0 0 c 0.44,0.31 0.56,0.91 0.25,1.36 v 0 c -0.19,0.27 -0.5,0.42 -0.81,0.42 v 0 c -0.18,0 -0.38,-0.06 -0.55,-0.17 z"
   style="fill:#f5ff4f;fill-opacity:1" />
	<path
   id="XMLID_7863_"
   class="st0"
   d="m 806.94,381.02 c -0.2,-0.5 0.06,-1.07 0.56,-1.27 v 0 c 0.51,-0.19 1.08,0.07 1.27,0.57 v 0 c 0.2,0.5 -0.06,1.07 -0.56,1.26 v 0.01 c -0.12,0.04 -0.23,0.06 -0.35,0.06 v 0 c -0.4,0 -0.77,-0.24 -0.92,-0.63 z"
   style="fill:#f5ff4f;fill-opacity:1" />
	<path
   id="XMLID_7862_"
   class="st0"
   d="m 814.6,380.98 c -0.65,-0.08 -1.11,-0.66 -1.03,-1.31 v 0 c 0.08,-0.64 0.66,-1.11 1.31,-1.03 v 0 c 0.64,0.08 1.11,0.66 1.03,1.3 v 0 c -0.07,0.6 -0.58,1.04 -1.17,1.04 v 0 c -0.05,0.01 -0.09,0.01 -0.14,0 z"
   style="fill:#f5ff4f;fill-opacity:1" />
	<path
   id="XMLID_7853_"
   class="st0"
   d="m 809.19,400.87 v 0 0 c -0.47,-0.27 -0.63,-0.87 -0.36,-1.34 v 0 c 0.27,-0.47 0.87,-0.63 1.34,-0.36 v 0 c 0.47,0.27 0.63,0.87 0.36,1.34 v 0 c -0.18,0.31 -0.51,0.49 -0.85,0.49 v 0 c -0.17,0 -0.34,-0.04 -0.49,-0.13 z m 6.35,-0.37 c -0.27,-0.46 -0.11,-1.06 0.35,-1.34 v 0 c 0.47,-0.27 1.07,-0.11 1.34,0.36 v 0 c 0.27,0.46 0.11,1.06 -0.35,1.34 v 0 0 0 c -0.16,0.08 -0.33,0.13 -0.49,0.13 v 0 c -0.34,0 -0.67,-0.18 -0.85,-0.49 z m -10.2,-6.28 c 0,-0.54 0.44,-0.98 0.98,-0.98 v 0 c 0.54,-0.01 0.98,0.43 0.98,0.98 v 0 c 0,0.54 -0.44,0.98 -0.98,0.98 v 0 c -0.54,0 -0.98,-0.44 -0.98,-0.98 z m 13.67,0 c 0,-0.01 0,-0.02 0,-0.04 v 0 c 0,-0.41 0.33,-0.74 0.73,-0.74 v 0 c 0.41,0 0.73,0.33 0.73,0.73 v 0 c 0,0 0,0.01 0,0.01 v 0 c 0,0 0,0.01 0,0.01 v 0 c 0,0 0,0 0,0 v 0 c 0,0.4 -0.33,0.73 -0.73,0.73 v 0 c -0.4,0.01 -0.72,-0.3 -0.73,-0.7 z m -9.99,-5.45 c -0.2,-0.35 -0.08,-0.8 0.26,-1 v 0 c 0.35,-0.21 0.8,-0.09 1.01,0.26 v 0 c 0.2,0.35 0.08,0.8 -0.26,1 v 0 c -0.12,0.07 -0.24,0.1 -0.37,0.1 v 0 c -0.25,0 -0.5,-0.12 -0.64,-0.36 z m 6.86,0.46 v 0 c -0.47,-0.27 -0.63,-0.87 -0.36,-1.34 v 0 c 0.27,-0.47 0.86,-0.63 1.33,-0.36 v 0 0 0 c 0.47,0.27 0.63,0.86 0.37,1.33 v 0 c -0.18,0.32 -0.52,0.5 -0.86,0.5 v 0 c -0.16,0 -0.33,-0.04 -0.48,-0.13 z"
   style="fill:#f5ff4f;fill-opacity:1" />
</g>
</svg>
